<?xml version="1.0" encoding="utf-8" standalone="no"?>
<!DOCTYPE svg PUBLIC "-//W3C//DTD SVG 1.1//EN"
  "http://www.w3.org/Graphics/SVG/1.1/DTD/svg11.dtd">
<svg xmlns:xlink="http://www.w3.org/1999/xlink" width="1008pt" height="540pt" viewBox="0 0 1008 540" xmlns="http://www.w3.org/2000/svg" version="1.1">
 <metadata>
  <rdf:RDF xmlns:dc="http://purl.org/dc/elements/1.1/" xmlns:cc="http://creativecommons.org/ns#" xmlns:rdf="http://www.w3.org/1999/02/22-rdf-syntax-ns#">
   <cc:Work>
    <dc:type rdf:resource="http://purl.org/dc/dcmitype/StillImage"/>
    <dc:date>2024-09-26T22:12:29.991015</dc:date>
    <dc:format>image/svg+xml</dc:format>
    <dc:creator>
     <cc:Agent>
      <dc:title>Matplotlib v3.9.2, https://matplotlib.org/</dc:title>
     </cc:Agent>
    </dc:creator>
   </cc:Work>
  </rdf:RDF>
 </metadata>
 <defs>
  <style type="text/css">*{stroke-linejoin: round; stroke-linecap: butt}</style>
 </defs>
 <g id="figure_1">
  <g id="patch_1">
   <path d="M 0 540 
L 1008 540 
L 1008 0 
L 0 0 
z
" style="fill: #ffffff"/>
  </g>
  <g id="axes_1">
   <g id="patch_2">
    <path d="M 50.87 496.6 
L 384.195 496.6 
L 384.195 25.44 
L 50.87 25.44 
z
" style="fill: #ffffff"/>
   </g>
   <g id="matplotlib.axis_1">
    <g id="xtick_1">
     <g id="line2d_1">
      <path d="M 50.87 496.6 
L 50.87 25.44 
" clip-path="url(#pa49c647d7a)" style="fill: none; stroke-dasharray: 2.96,1.28; stroke-dashoffset: 0; stroke: #d3d3d3; stroke-width: 0.8"/>
     </g>
     <g id="line2d_2">
      <defs>
       <path id="ma8a4ad003e" d="M 0 0 
L 0 3.5 
" style="stroke: #000000; stroke-width: 0.8"/>
      </defs>
      <g>
       <use xlink:href="#ma8a4ad003e" x="50.87" y="496.6" style="stroke: #000000; stroke-width: 0.8"/>
      </g>
     </g>
     <g id="text_1">
      <!-- 0 -->
      <g transform="translate(48.37 510.54375) scale(0.1 -0.1)">
       <defs>
        <path id="TimesNewRomanPSMT-30" d="M 231 2094 
Q 231 2819 450 3342 
Q 669 3866 1031 4122 
Q 1313 4325 1613 4325 
Q 2100 4325 2488 3828 
Q 2972 3213 2972 2159 
Q 2972 1422 2759 906 
Q 2547 391 2217 158 
Q 1888 -75 1581 -75 
Q 975 -75 572 641 
Q 231 1244 231 2094 
z
M 844 2016 
Q 844 1141 1059 588 
Q 1238 122 1591 122 
Q 1759 122 1940 273 
Q 2122 425 2216 781 
Q 2359 1319 2359 2297 
Q 2359 3022 2209 3506 
Q 2097 3866 1919 4016 
Q 1791 4119 1609 4119 
Q 1397 4119 1231 3928 
Q 1006 3669 925 3112 
Q 844 2556 844 2016 
z
" transform="scale(0.015625)"/>
       </defs>
       <use xlink:href="#TimesNewRomanPSMT-30"/>
      </g>
     </g>
    </g>
    <g id="xtick_2">
     <g id="line2d_3">
      <path d="M 117.535 496.6 
L 117.535 25.44 
" clip-path="url(#pa49c647d7a)" style="fill: none; stroke-dasharray: 2.96,1.28; stroke-dashoffset: 0; stroke: #d3d3d3; stroke-width: 0.8"/>
     </g>
     <g id="line2d_4">
      <g>
       <use xlink:href="#ma8a4ad003e" x="117.535" y="496.6" style="stroke: #000000; stroke-width: 0.8"/>
      </g>
     </g>
     <g id="text_2">
      <!-- 10 -->
      <g transform="translate(112.535 510.54375) scale(0.1 -0.1)">
       <defs>
        <path id="TimesNewRomanPSMT-31" d="M 750 3822 
L 1781 4325 
L 1884 4325 
L 1884 747 
Q 1884 391 1914 303 
Q 1944 216 2037 169 
Q 2131 122 2419 116 
L 2419 0 
L 825 0 
L 825 116 
Q 1125 122 1212 167 
Q 1300 213 1334 289 
Q 1369 366 1369 747 
L 1369 3034 
Q 1369 3497 1338 3628 
Q 1316 3728 1258 3775 
Q 1200 3822 1119 3822 
Q 1003 3822 797 3725 
L 750 3822 
z
" transform="scale(0.015625)"/>
       </defs>
       <use xlink:href="#TimesNewRomanPSMT-31"/>
       <use xlink:href="#TimesNewRomanPSMT-30" x="50"/>
      </g>
     </g>
    </g>
    <g id="xtick_3">
     <g id="line2d_5">
      <path d="M 184.2 496.6 
L 184.2 25.44 
" clip-path="url(#pa49c647d7a)" style="fill: none; stroke-dasharray: 2.96,1.28; stroke-dashoffset: 0; stroke: #d3d3d3; stroke-width: 0.8"/>
     </g>
     <g id="line2d_6">
      <g>
       <use xlink:href="#ma8a4ad003e" x="184.2" y="496.6" style="stroke: #000000; stroke-width: 0.8"/>
      </g>
     </g>
     <g id="text_3">
      <!-- 20 -->
      <g transform="translate(179.2 510.54375) scale(0.1 -0.1)">
       <defs>
        <path id="TimesNewRomanPSMT-32" d="M 2934 816 
L 2638 0 
L 138 0 
L 138 116 
Q 1241 1122 1691 1759 
Q 2141 2397 2141 2925 
Q 2141 3328 1894 3587 
Q 1647 3847 1303 3847 
Q 991 3847 742 3664 
Q 494 3481 375 3128 
L 259 3128 
Q 338 3706 661 4015 
Q 984 4325 1469 4325 
Q 1984 4325 2329 3994 
Q 2675 3663 2675 3213 
Q 2675 2891 2525 2569 
Q 2294 2063 1775 1497 
Q 997 647 803 472 
L 1909 472 
Q 2247 472 2383 497 
Q 2519 522 2628 598 
Q 2738 675 2819 816 
L 2934 816 
z
" transform="scale(0.015625)"/>
       </defs>
       <use xlink:href="#TimesNewRomanPSMT-32"/>
       <use xlink:href="#TimesNewRomanPSMT-30" x="50"/>
      </g>
     </g>
    </g>
    <g id="xtick_4">
     <g id="line2d_7">
      <path d="M 250.865 496.6 
L 250.865 25.44 
" clip-path="url(#pa49c647d7a)" style="fill: none; stroke-dasharray: 2.96,1.28; stroke-dashoffset: 0; stroke: #d3d3d3; stroke-width: 0.8"/>
     </g>
     <g id="line2d_8">
      <g>
       <use xlink:href="#ma8a4ad003e" x="250.865" y="496.6" style="stroke: #000000; stroke-width: 0.8"/>
      </g>
     </g>
     <g id="text_4">
      <!-- 30 -->
      <g transform="translate(245.865 510.54375) scale(0.1 -0.1)">
       <defs>
        <path id="TimesNewRomanPSMT-33" d="M 325 3431 
Q 506 3859 782 4092 
Q 1059 4325 1472 4325 
Q 1981 4325 2253 3994 
Q 2459 3747 2459 3466 
Q 2459 3003 1878 2509 
Q 2269 2356 2469 2072 
Q 2669 1788 2669 1403 
Q 2669 853 2319 450 
Q 1863 -75 997 -75 
Q 569 -75 414 31 
Q 259 138 259 259 
Q 259 350 332 419 
Q 406 488 509 488 
Q 588 488 669 463 
Q 722 447 909 348 
Q 1097 250 1169 231 
Q 1284 197 1416 197 
Q 1734 197 1970 444 
Q 2206 691 2206 1028 
Q 2206 1275 2097 1509 
Q 2016 1684 1919 1775 
Q 1784 1900 1550 2001 
Q 1316 2103 1072 2103 
L 972 2103 
L 972 2197 
Q 1219 2228 1467 2375 
Q 1716 2522 1828 2728 
Q 1941 2934 1941 3181 
Q 1941 3503 1739 3701 
Q 1538 3900 1238 3900 
Q 753 3900 428 3381 
L 325 3431 
z
" transform="scale(0.015625)"/>
       </defs>
       <use xlink:href="#TimesNewRomanPSMT-33"/>
       <use xlink:href="#TimesNewRomanPSMT-30" x="50"/>
      </g>
     </g>
    </g>
    <g id="xtick_5">
     <g id="line2d_9">
      <path d="M 317.53 496.6 
L 317.53 25.44 
" clip-path="url(#pa49c647d7a)" style="fill: none; stroke-dasharray: 2.96,1.28; stroke-dashoffset: 0; stroke: #d3d3d3; stroke-width: 0.8"/>
     </g>
     <g id="line2d_10">
      <g>
       <use xlink:href="#ma8a4ad003e" x="317.53" y="496.6" style="stroke: #000000; stroke-width: 0.8"/>
      </g>
     </g>
     <g id="text_5">
      <!-- 40 -->
      <g transform="translate(312.53 510.54375) scale(0.1 -0.1)">
       <defs>
        <path id="TimesNewRomanPSMT-34" d="M 2978 1563 
L 2978 1119 
L 2409 1119 
L 2409 0 
L 1894 0 
L 1894 1119 
L 100 1119 
L 100 1519 
L 2066 4325 
L 2409 4325 
L 2409 1563 
L 2978 1563 
z
M 1894 1563 
L 1894 3666 
L 406 1563 
L 1894 1563 
z
" transform="scale(0.015625)"/>
       </defs>
       <use xlink:href="#TimesNewRomanPSMT-34"/>
       <use xlink:href="#TimesNewRomanPSMT-30" x="50"/>
      </g>
     </g>
    </g>
    <g id="xtick_6">
     <g id="line2d_11">
      <path d="M 384.195 496.6 
L 384.195 25.44 
" clip-path="url(#pa49c647d7a)" style="fill: none; stroke-dasharray: 2.96,1.28; stroke-dashoffset: 0; stroke: #d3d3d3; stroke-width: 0.8"/>
     </g>
     <g id="line2d_12">
      <g>
       <use xlink:href="#ma8a4ad003e" x="384.195" y="496.6" style="stroke: #000000; stroke-width: 0.8"/>
      </g>
     </g>
     <g id="text_6">
      <!-- 50 -->
      <g transform="translate(379.195 510.54375) scale(0.1 -0.1)">
       <defs>
        <path id="TimesNewRomanPSMT-35" d="M 2778 4238 
L 2534 3706 
L 1259 3706 
L 981 3138 
Q 1809 3016 2294 2522 
Q 2709 2097 2709 1522 
Q 2709 1188 2573 903 
Q 2438 619 2231 419 
Q 2025 219 1772 97 
Q 1413 -75 1034 -75 
Q 653 -75 479 54 
Q 306 184 306 341 
Q 306 428 378 495 
Q 450 563 559 563 
Q 641 563 702 538 
Q 763 513 909 409 
Q 1144 247 1384 247 
Q 1750 247 2026 523 
Q 2303 800 2303 1197 
Q 2303 1581 2056 1914 
Q 1809 2247 1375 2428 
Q 1034 2569 447 2591 
L 1259 4238 
L 2778 4238 
z
" transform="scale(0.015625)"/>
       </defs>
       <use xlink:href="#TimesNewRomanPSMT-35"/>
       <use xlink:href="#TimesNewRomanPSMT-30" x="50"/>
      </g>
     </g>
    </g>
    <g id="text_7">
     <!-- Epoch -->
     <g transform="translate(202.204375 525.015312) scale(0.12 -0.12)">
      <defs>
       <path id="TimesNewRomanPSMT-45" d="M 1338 4006 
L 1338 2331 
L 2269 2331 
Q 2631 2331 2753 2441 
Q 2916 2584 2934 2947 
L 3050 2947 
L 3050 1472 
L 2934 1472 
Q 2891 1781 2847 1869 
Q 2791 1978 2662 2040 
Q 2534 2103 2269 2103 
L 1338 2103 
L 1338 706 
Q 1338 425 1363 364 
Q 1388 303 1450 267 
Q 1513 231 1688 231 
L 2406 231 
Q 2766 231 2928 281 
Q 3091 331 3241 478 
Q 3434 672 3638 1063 
L 3763 1063 
L 3397 0 
L 131 0 
L 131 116 
L 281 116 
Q 431 116 566 188 
Q 666 238 702 338 
Q 738 438 738 747 
L 738 3500 
Q 738 3903 656 3997 
Q 544 4122 281 4122 
L 131 4122 
L 131 4238 
L 3397 4238 
L 3444 3309 
L 3322 3309 
Q 3256 3644 3176 3769 
Q 3097 3894 2941 3959 
Q 2816 4006 2500 4006 
L 1338 4006 
z
" transform="scale(0.015625)"/>
       <path id="TimesNewRomanPSMT-70" d="M -6 2578 
L 875 2934 
L 994 2934 
L 994 2266 
Q 1216 2644 1439 2795 
Q 1663 2947 1909 2947 
Q 2341 2947 2628 2609 
Q 2981 2197 2981 1534 
Q 2981 794 2556 309 
Q 2206 -88 1675 -88 
Q 1444 -88 1275 -22 
Q 1150 25 994 166 
L 994 -706 
Q 994 -1000 1030 -1079 
Q 1066 -1159 1155 -1206 
Q 1244 -1253 1478 -1253 
L 1478 -1369 
L -22 -1369 
L -22 -1253 
L 56 -1253 
Q 228 -1256 350 -1188 
Q 409 -1153 442 -1076 
Q 475 -1000 475 -688 
L 475 2019 
Q 475 2297 450 2372 
Q 425 2447 370 2484 
Q 316 2522 222 2522 
Q 147 2522 31 2478 
L -6 2578 
z
M 994 2081 
L 994 1013 
Q 994 666 1022 556 
Q 1066 375 1236 237 
Q 1406 100 1666 100 
Q 1978 100 2172 344 
Q 2425 663 2425 1241 
Q 2425 1897 2138 2250 
Q 1938 2494 1663 2494 
Q 1513 2494 1366 2419 
Q 1253 2363 994 2081 
z
" transform="scale(0.015625)"/>
       <path id="TimesNewRomanPSMT-6f" d="M 1600 2947 
Q 2250 2947 2644 2453 
Q 2978 2031 2978 1484 
Q 2978 1100 2793 706 
Q 2609 313 2286 112 
Q 1963 -88 1566 -88 
Q 919 -88 538 428 
Q 216 863 216 1403 
Q 216 1797 411 2186 
Q 606 2575 925 2761 
Q 1244 2947 1600 2947 
z
M 1503 2744 
Q 1338 2744 1170 2645 
Q 1003 2547 900 2300 
Q 797 2053 797 1666 
Q 797 1041 1045 587 
Q 1294 134 1700 134 
Q 2003 134 2200 384 
Q 2397 634 2397 1244 
Q 2397 2006 2069 2444 
Q 1847 2744 1503 2744 
z
" transform="scale(0.015625)"/>
       <path id="TimesNewRomanPSMT-63" d="M 2631 1088 
Q 2516 522 2178 217 
Q 1841 -88 1431 -88 
Q 944 -88 581 321 
Q 219 731 219 1428 
Q 219 2103 620 2525 
Q 1022 2947 1584 2947 
Q 2006 2947 2278 2723 
Q 2550 2500 2550 2259 
Q 2550 2141 2473 2067 
Q 2397 1994 2259 1994 
Q 2075 1994 1981 2113 
Q 1928 2178 1911 2362 
Q 1894 2547 1784 2644 
Q 1675 2738 1481 2738 
Q 1169 2738 978 2506 
Q 725 2200 725 1697 
Q 725 1184 976 792 
Q 1228 400 1656 400 
Q 1963 400 2206 609 
Q 2378 753 2541 1131 
L 2631 1088 
z
" transform="scale(0.015625)"/>
       <path id="TimesNewRomanPSMT-68" d="M 1041 4444 
L 1041 2350 
Q 1388 2731 1591 2839 
Q 1794 2947 1997 2947 
Q 2241 2947 2416 2812 
Q 2591 2678 2675 2391 
Q 2734 2191 2734 1659 
L 2734 647 
Q 2734 375 2778 275 
Q 2809 200 2884 156 
Q 2959 113 3159 113 
L 3159 0 
L 1753 0 
L 1753 113 
L 1819 113 
Q 2019 113 2097 173 
Q 2175 234 2206 353 
Q 2216 403 2216 647 
L 2216 1659 
Q 2216 2128 2167 2275 
Q 2119 2422 2012 2495 
Q 1906 2569 1756 2569 
Q 1603 2569 1437 2487 
Q 1272 2406 1041 2159 
L 1041 647 
Q 1041 353 1073 281 
Q 1106 209 1195 161 
Q 1284 113 1503 113 
L 1503 0 
L 84 0 
L 84 113 
Q 275 113 384 172 
Q 447 203 484 290 
Q 522 378 522 647 
L 522 3238 
Q 522 3728 498 3840 
Q 475 3953 426 3993 
Q 378 4034 297 4034 
Q 231 4034 84 3984 
L 41 4094 
L 897 4444 
L 1041 4444 
z
" transform="scale(0.015625)"/>
      </defs>
      <use xlink:href="#TimesNewRomanPSMT-45"/>
      <use xlink:href="#TimesNewRomanPSMT-70" x="61.083984"/>
      <use xlink:href="#TimesNewRomanPSMT-6f" x="111.083984"/>
      <use xlink:href="#TimesNewRomanPSMT-63" x="161.083984"/>
      <use xlink:href="#TimesNewRomanPSMT-68" x="205.46875"/>
     </g>
    </g>
   </g>
   <g id="matplotlib.axis_2">
    <g id="ytick_1">
     <g id="line2d_13">
      <path d="M 50.87 457.62924 
L 384.195 457.62924 
" clip-path="url(#pa49c647d7a)" style="fill: none; stroke-dasharray: 2.96,1.28; stroke-dashoffset: 0; stroke: #d3d3d3; stroke-width: 0.8"/>
     </g>
     <g id="line2d_14">
      <defs>
       <path id="m6232a96b5d" d="M 0 0 
L -3.5 0 
" style="stroke: #000000; stroke-width: 0.8"/>
      </defs>
      <g>
       <use xlink:href="#m6232a96b5d" x="50.87" y="457.62924" style="stroke: #000000; stroke-width: 0.8"/>
      </g>
     </g>
     <g id="text_8">
      <!-- 0.48 -->
      <g transform="translate(26.37 461.101115) scale(0.1 -0.1)">
       <defs>
        <path id="TimesNewRomanPSMT-2e" d="M 800 606 
Q 947 606 1047 504 
Q 1147 403 1147 259 
Q 1147 116 1045 14 
Q 944 -88 800 -88 
Q 656 -88 554 14 
Q 453 116 453 259 
Q 453 406 554 506 
Q 656 606 800 606 
z
" transform="scale(0.015625)"/>
        <path id="TimesNewRomanPSMT-38" d="M 1228 2134 
Q 725 2547 579 2797 
Q 434 3047 434 3316 
Q 434 3728 753 4026 
Q 1072 4325 1600 4325 
Q 2113 4325 2425 4047 
Q 2738 3769 2738 3413 
Q 2738 3175 2569 2928 
Q 2400 2681 1866 2347 
Q 2416 1922 2594 1678 
Q 2831 1359 2831 1006 
Q 2831 559 2490 242 
Q 2150 -75 1597 -75 
Q 994 -75 656 303 
Q 388 606 388 966 
Q 388 1247 577 1523 
Q 766 1800 1228 2134 
z
M 1719 2469 
Q 2094 2806 2194 3001 
Q 2294 3197 2294 3444 
Q 2294 3772 2109 3958 
Q 1925 4144 1606 4144 
Q 1288 4144 1088 3959 
Q 888 3775 888 3528 
Q 888 3366 970 3203 
Q 1053 3041 1206 2894 
L 1719 2469 
z
M 1375 2016 
Q 1116 1797 991 1539 
Q 866 1281 866 981 
Q 866 578 1086 336 
Q 1306 94 1647 94 
Q 1984 94 2187 284 
Q 2391 475 2391 747 
Q 2391 972 2272 1150 
Q 2050 1481 1375 2016 
z
" transform="scale(0.015625)"/>
       </defs>
       <use xlink:href="#TimesNewRomanPSMT-30"/>
       <use xlink:href="#TimesNewRomanPSMT-2e" x="50"/>
       <use xlink:href="#TimesNewRomanPSMT-34" x="75"/>
       <use xlink:href="#TimesNewRomanPSMT-38" x="125"/>
      </g>
     </g>
    </g>
    <g id="ytick_2">
     <g id="line2d_15">
      <path d="M 50.87 369.857258 
L 384.195 369.857258 
" clip-path="url(#pa49c647d7a)" style="fill: none; stroke-dasharray: 2.96,1.28; stroke-dashoffset: 0; stroke: #d3d3d3; stroke-width: 0.8"/>
     </g>
     <g id="line2d_16">
      <g>
       <use xlink:href="#m6232a96b5d" x="50.87" y="369.857258" style="stroke: #000000; stroke-width: 0.8"/>
      </g>
     </g>
     <g id="text_9">
      <!-- 0.49 -->
      <g transform="translate(26.37 373.329133) scale(0.1 -0.1)">
       <defs>
        <path id="TimesNewRomanPSMT-39" d="M 338 -88 
L 338 28 
Q 744 34 1094 217 
Q 1444 400 1770 856 
Q 2097 1313 2225 1859 
Q 1734 1544 1338 1544 
Q 891 1544 572 1889 
Q 253 2234 253 2806 
Q 253 3363 572 3797 
Q 956 4325 1575 4325 
Q 2097 4325 2469 3894 
Q 2925 3359 2925 2575 
Q 2925 1869 2578 1258 
Q 2231 647 1613 244 
Q 1109 -88 516 -88 
L 338 -88 
z
M 2275 2091 
Q 2331 2497 2331 2741 
Q 2331 3044 2228 3395 
Q 2125 3747 1936 3934 
Q 1747 4122 1506 4122 
Q 1228 4122 1018 3872 
Q 809 3622 809 3128 
Q 809 2469 1088 2097 
Q 1291 1828 1588 1828 
Q 1731 1828 1928 1897 
Q 2125 1966 2275 2091 
z
" transform="scale(0.015625)"/>
       </defs>
       <use xlink:href="#TimesNewRomanPSMT-30"/>
       <use xlink:href="#TimesNewRomanPSMT-2e" x="50"/>
       <use xlink:href="#TimesNewRomanPSMT-34" x="75"/>
       <use xlink:href="#TimesNewRomanPSMT-39" x="125"/>
      </g>
     </g>
    </g>
    <g id="ytick_3">
     <g id="line2d_17">
      <path d="M 50.87 282.085276 
L 384.195 282.085276 
" clip-path="url(#pa49c647d7a)" style="fill: none; stroke-dasharray: 2.96,1.28; stroke-dashoffset: 0; stroke: #d3d3d3; stroke-width: 0.8"/>
     </g>
     <g id="line2d_18">
      <g>
       <use xlink:href="#m6232a96b5d" x="50.87" y="282.085276" style="stroke: #000000; stroke-width: 0.8"/>
      </g>
     </g>
     <g id="text_10">
      <!-- 0.50 -->
      <g transform="translate(26.37 285.557151) scale(0.1 -0.1)">
       <use xlink:href="#TimesNewRomanPSMT-30"/>
       <use xlink:href="#TimesNewRomanPSMT-2e" x="50"/>
       <use xlink:href="#TimesNewRomanPSMT-35" x="75"/>
       <use xlink:href="#TimesNewRomanPSMT-30" x="125"/>
      </g>
     </g>
    </g>
    <g id="ytick_4">
     <g id="line2d_19">
      <path d="M 50.87 194.313294 
L 384.195 194.313294 
" clip-path="url(#pa49c647d7a)" style="fill: none; stroke-dasharray: 2.96,1.28; stroke-dashoffset: 0; stroke: #d3d3d3; stroke-width: 0.8"/>
     </g>
     <g id="line2d_20">
      <g>
       <use xlink:href="#m6232a96b5d" x="50.87" y="194.313294" style="stroke: #000000; stroke-width: 0.8"/>
      </g>
     </g>
     <g id="text_11">
      <!-- 0.51 -->
      <g transform="translate(26.37 197.785169) scale(0.1 -0.1)">
       <use xlink:href="#TimesNewRomanPSMT-30"/>
       <use xlink:href="#TimesNewRomanPSMT-2e" x="50"/>
       <use xlink:href="#TimesNewRomanPSMT-35" x="75"/>
       <use xlink:href="#TimesNewRomanPSMT-31" x="125"/>
      </g>
     </g>
    </g>
    <g id="ytick_5">
     <g id="line2d_21">
      <path d="M 50.87 106.541311 
L 384.195 106.541311 
" clip-path="url(#pa49c647d7a)" style="fill: none; stroke-dasharray: 2.96,1.28; stroke-dashoffset: 0; stroke: #d3d3d3; stroke-width: 0.8"/>
     </g>
     <g id="line2d_22">
      <g>
       <use xlink:href="#m6232a96b5d" x="50.87" y="106.541311" style="stroke: #000000; stroke-width: 0.8"/>
      </g>
     </g>
     <g id="text_12">
      <!-- 0.52 -->
      <g transform="translate(26.37 110.013186) scale(0.1 -0.1)">
       <use xlink:href="#TimesNewRomanPSMT-30"/>
       <use xlink:href="#TimesNewRomanPSMT-2e" x="50"/>
       <use xlink:href="#TimesNewRomanPSMT-35" x="75"/>
       <use xlink:href="#TimesNewRomanPSMT-32" x="125"/>
      </g>
     </g>
    </g>
    <g id="text_13">
     <!-- Loss -->
     <g transform="translate(19.803125 272.355312) rotate(-90) scale(0.12 -0.12)">
      <defs>
       <path id="TimesNewRomanPSMT-4c" d="M 3669 1172 
L 3772 1150 
L 3409 0 
L 128 0 
L 128 116 
L 288 116 
Q 556 116 672 291 
Q 738 391 738 753 
L 738 3488 
Q 738 3884 650 3984 
Q 528 4122 288 4122 
L 128 4122 
L 128 4238 
L 2047 4238 
L 2047 4122 
Q 1709 4125 1573 4059 
Q 1438 3994 1388 3894 
Q 1338 3794 1338 3416 
L 1338 753 
Q 1338 494 1388 397 
Q 1425 331 1503 300 
Q 1581 269 1991 269 
L 2300 269 
Q 2788 269 2984 341 
Q 3181 413 3343 595 
Q 3506 778 3669 1172 
z
" transform="scale(0.015625)"/>
       <path id="TimesNewRomanPSMT-73" d="M 2050 2947 
L 2050 1972 
L 1947 1972 
Q 1828 2431 1642 2597 
Q 1456 2763 1169 2763 
Q 950 2763 815 2647 
Q 681 2531 681 2391 
Q 681 2216 781 2091 
Q 878 1963 1175 1819 
L 1631 1597 
Q 2266 1288 2266 781 
Q 2266 391 1970 151 
Q 1675 -88 1309 -88 
Q 1047 -88 709 6 
Q 606 38 541 38 
Q 469 38 428 -44 
L 325 -44 
L 325 978 
L 428 978 
Q 516 541 762 319 
Q 1009 97 1316 97 
Q 1531 97 1667 223 
Q 1803 350 1803 528 
Q 1803 744 1651 891 
Q 1500 1038 1047 1263 
Q 594 1488 453 1669 
Q 313 1847 313 2119 
Q 313 2472 555 2709 
Q 797 2947 1181 2947 
Q 1350 2947 1591 2875 
Q 1750 2828 1803 2828 
Q 1853 2828 1881 2850 
Q 1909 2872 1947 2947 
L 2050 2947 
z
" transform="scale(0.015625)"/>
      </defs>
      <use xlink:href="#TimesNewRomanPSMT-4c"/>
      <use xlink:href="#TimesNewRomanPSMT-6f" x="61.083984"/>
      <use xlink:href="#TimesNewRomanPSMT-73" x="111.083984"/>
      <use xlink:href="#TimesNewRomanPSMT-73" x="150"/>
     </g>
    </g>
   </g>
   <g id="line2d_23">
    <path d="M 57.5365 71.432519 
L 64.203 203.968212 
L 70.8695 254.875961 
L 77.536 229.422086 
L 84.2025 282.085276 
L 90.869 286.473875 
L 97.5355 301.395112 
L 104.202 321.582668 
L 110.8685 332.115306 
L 117.535 334.748465 
L 124.2015 301.395112 
L 130.868 315.438629 
L 137.5345 356.691461 
L 144.201 342.647943 
L 150.8675 361.957779 
L 157.534 294.373353 
L 164.2005 337.381624 
L 170.867 311.05003 
L 177.5335 372.490417 
L 184.2 361.957779 
L 190.8665 328.604426 
L 197.533 362.835499 
L 204.1995 325.093547 
L 210.866 358.4469 
L 217.5325 345.281103 
L 224.199 364.590939 
L 230.8655 371.612697 
L 237.532 398.822012 
L 244.1985 394.433413 
L 250.865 372.490417 
L 257.5315 354.936021 
L 264.198 359.32462 
L 270.8645 365.468659 
L 277.531 374.245857 
L 284.1975 381.267615 
L 290.864 377.756736 
L 297.5305 395.311133 
L 304.197 376.879016 
L 310.8635 433.930805 
L 317.53 383.023055 
L 324.1965 400.577452 
L 330.863 396.188852 
L 337.5295 404.088331 
L 344.196 362.835499 
L 350.8625 400.577452 
L 357.529 404.966051 
L 364.1955 338.259344 
L 370.862 361.957779 
L 377.5285 386.533934 
L 384.195 368.101818 
" clip-path="url(#pa49c647d7a)" style="fill: none; stroke-dasharray: 7.4,3.2; stroke-dashoffset: 0; stroke: #414487; stroke-width: 2"/>
    <defs>
     <path id="me6bade3461" d="M 0 3 
C 0.795609 3 1.55874 2.683901 2.12132 2.12132 
C 2.683901 1.55874 3 0.795609 3 0 
C 3 -0.795609 2.683901 -1.55874 2.12132 -2.12132 
C 1.55874 -2.683901 0.795609 -3 0 -3 
C -0.795609 -3 -1.55874 -2.683901 -2.12132 -2.12132 
C -2.683901 -1.55874 -3 -0.795609 -3 0 
C -3 0.795609 -2.683901 1.55874 -2.12132 2.12132 
C -1.55874 2.683901 -0.795609 3 0 3 
z
" style="stroke: #414487"/>
    </defs>
    <g clip-path="url(#pa49c647d7a)">
     <use xlink:href="#me6bade3461" x="57.5365" y="71.432519" style="fill: #414487; stroke: #414487"/>
     <use xlink:href="#me6bade3461" x="64.203" y="203.968212" style="fill: #414487; stroke: #414487"/>
     <use xlink:href="#me6bade3461" x="70.8695" y="254.875961" style="fill: #414487; stroke: #414487"/>
     <use xlink:href="#me6bade3461" x="77.536" y="229.422086" style="fill: #414487; stroke: #414487"/>
     <use xlink:href="#me6bade3461" x="84.2025" y="282.085276" style="fill: #414487; stroke: #414487"/>
     <use xlink:href="#me6bade3461" x="90.869" y="286.473875" style="fill: #414487; stroke: #414487"/>
     <use xlink:href="#me6bade3461" x="97.5355" y="301.395112" style="fill: #414487; stroke: #414487"/>
     <use xlink:href="#me6bade3461" x="104.202" y="321.582668" style="fill: #414487; stroke: #414487"/>
     <use xlink:href="#me6bade3461" x="110.8685" y="332.115306" style="fill: #414487; stroke: #414487"/>
     <use xlink:href="#me6bade3461" x="117.535" y="334.748465" style="fill: #414487; stroke: #414487"/>
     <use xlink:href="#me6bade3461" x="124.2015" y="301.395112" style="fill: #414487; stroke: #414487"/>
     <use xlink:href="#me6bade3461" x="130.868" y="315.438629" style="fill: #414487; stroke: #414487"/>
     <use xlink:href="#me6bade3461" x="137.5345" y="356.691461" style="fill: #414487; stroke: #414487"/>
     <use xlink:href="#me6bade3461" x="144.201" y="342.647943" style="fill: #414487; stroke: #414487"/>
     <use xlink:href="#me6bade3461" x="150.8675" y="361.957779" style="fill: #414487; stroke: #414487"/>
     <use xlink:href="#me6bade3461" x="157.534" y="294.373353" style="fill: #414487; stroke: #414487"/>
     <use xlink:href="#me6bade3461" x="164.2005" y="337.381624" style="fill: #414487; stroke: #414487"/>
     <use xlink:href="#me6bade3461" x="170.867" y="311.05003" style="fill: #414487; stroke: #414487"/>
     <use xlink:href="#me6bade3461" x="177.5335" y="372.490417" style="fill: #414487; stroke: #414487"/>
     <use xlink:href="#me6bade3461" x="184.2" y="361.957779" style="fill: #414487; stroke: #414487"/>
     <use xlink:href="#me6bade3461" x="190.8665" y="328.604426" style="fill: #414487; stroke: #414487"/>
     <use xlink:href="#me6bade3461" x="197.533" y="362.835499" style="fill: #414487; stroke: #414487"/>
     <use xlink:href="#me6bade3461" x="204.1995" y="325.093547" style="fill: #414487; stroke: #414487"/>
     <use xlink:href="#me6bade3461" x="210.866" y="358.4469" style="fill: #414487; stroke: #414487"/>
     <use xlink:href="#me6bade3461" x="217.5325" y="345.281103" style="fill: #414487; stroke: #414487"/>
     <use xlink:href="#me6bade3461" x="224.199" y="364.590939" style="fill: #414487; stroke: #414487"/>
     <use xlink:href="#me6bade3461" x="230.8655" y="371.612697" style="fill: #414487; stroke: #414487"/>
     <use xlink:href="#me6bade3461" x="237.532" y="398.822012" style="fill: #414487; stroke: #414487"/>
     <use xlink:href="#me6bade3461" x="244.1985" y="394.433413" style="fill: #414487; stroke: #414487"/>
     <use xlink:href="#me6bade3461" x="250.865" y="372.490417" style="fill: #414487; stroke: #414487"/>
     <use xlink:href="#me6bade3461" x="257.5315" y="354.936021" style="fill: #414487; stroke: #414487"/>
     <use xlink:href="#me6bade3461" x="264.198" y="359.32462" style="fill: #414487; stroke: #414487"/>
     <use xlink:href="#me6bade3461" x="270.8645" y="365.468659" style="fill: #414487; stroke: #414487"/>
     <use xlink:href="#me6bade3461" x="277.531" y="374.245857" style="fill: #414487; stroke: #414487"/>
     <use xlink:href="#me6bade3461" x="284.1975" y="381.267615" style="fill: #414487; stroke: #414487"/>
     <use xlink:href="#me6bade3461" x="290.864" y="377.756736" style="fill: #414487; stroke: #414487"/>
     <use xlink:href="#me6bade3461" x="297.5305" y="395.311133" style="fill: #414487; stroke: #414487"/>
     <use xlink:href="#me6bade3461" x="304.197" y="376.879016" style="fill: #414487; stroke: #414487"/>
     <use xlink:href="#me6bade3461" x="310.8635" y="433.930805" style="fill: #414487; stroke: #414487"/>
     <use xlink:href="#me6bade3461" x="317.53" y="383.023055" style="fill: #414487; stroke: #414487"/>
     <use xlink:href="#me6bade3461" x="324.1965" y="400.577452" style="fill: #414487; stroke: #414487"/>
     <use xlink:href="#me6bade3461" x="330.863" y="396.188852" style="fill: #414487; stroke: #414487"/>
     <use xlink:href="#me6bade3461" x="337.5295" y="404.088331" style="fill: #414487; stroke: #414487"/>
     <use xlink:href="#me6bade3461" x="344.196" y="362.835499" style="fill: #414487; stroke: #414487"/>
     <use xlink:href="#me6bade3461" x="350.8625" y="400.577452" style="fill: #414487; stroke: #414487"/>
     <use xlink:href="#me6bade3461" x="357.529" y="404.966051" style="fill: #414487; stroke: #414487"/>
     <use xlink:href="#me6bade3461" x="364.1955" y="338.259344" style="fill: #414487; stroke: #414487"/>
     <use xlink:href="#me6bade3461" x="370.862" y="361.957779" style="fill: #414487; stroke: #414487"/>
     <use xlink:href="#me6bade3461" x="377.5285" y="386.533934" style="fill: #414487; stroke: #414487"/>
     <use xlink:href="#me6bade3461" x="384.195" y="368.101818" style="fill: #414487; stroke: #414487"/>
    </g>
   </g>
   <g id="line2d_24">
    <path d="M 57.5365 46.856364 
L 64.203 235.566125 
L 70.8695 236.443845 
L 77.536 233.810686 
L 84.2025 299.639672 
L 90.869 283.840715 
L 97.5355 307.539151 
L 104.202 333.870745 
L 110.8685 284.718435 
L 117.535 350.547422 
L 124.2015 358.4469 
L 130.868 333.870745 
L 137.5345 320.704948 
L 144.201 423.398167 
L 150.8675 388.289374 
L 157.534 339.137064 
L 164.2005 359.32462 
L 170.867 395.311133 
L 177.5335 330.359866 
L 184.2 309.29459 
L 190.8665 287.351595 
L 197.533 402.332891 
L 204.1995 303.150551 
L 210.866 304.905991 
L 217.5325 384.778495 
L 224.199 394.433413 
L 230.8655 353.180581 
L 237.532 265.408599 
L 244.1985 361.08006 
L 250.865 394.433413 
L 257.5315 286.473875 
L 264.198 368.979538 
L 270.8645 286.473875 
L 277.531 332.115306 
L 284.1975 457.62924 
L 290.864 332.115306 
L 297.5305 464.650999 
L 304.197 462.895559 
L 310.8635 372.490417 
L 317.53 380.389896 
L 324.1965 354.936021 
L 330.863 361.957779 
L 337.5295 475.183636 
L 344.196 382.145335 
L 350.8625 354.058301 
L 357.529 259.26456 
L 364.1955 301.395112 
L 370.862 376.879016 
L 377.5285 457.62924 
L 384.195 368.101818 
" clip-path="url(#pa49c647d7a)" style="fill: none; stroke-dasharray: 7.4,3.2; stroke-dashoffset: 0; stroke: #21918c; stroke-width: 2"/>
    <defs>
     <path id="mfcf5602460" d="M 0 3 
C 0.795609 3 1.55874 2.683901 2.12132 2.12132 
C 2.683901 1.55874 3 0.795609 3 0 
C 3 -0.795609 2.683901 -1.55874 2.12132 -2.12132 
C 1.55874 -2.683901 0.795609 -3 0 -3 
C -0.795609 -3 -1.55874 -2.683901 -2.12132 -2.12132 
C -2.683901 -1.55874 -3 -0.795609 -3 0 
C -3 0.795609 -2.683901 1.55874 -2.12132 2.12132 
C -1.55874 2.683901 -0.795609 3 0 3 
z
" style="stroke: #21918c"/>
    </defs>
    <g clip-path="url(#pa49c647d7a)">
     <use xlink:href="#mfcf5602460" x="57.5365" y="46.856364" style="fill: #21918c; stroke: #21918c"/>
     <use xlink:href="#mfcf5602460" x="64.203" y="235.566125" style="fill: #21918c; stroke: #21918c"/>
     <use xlink:href="#mfcf5602460" x="70.8695" y="236.443845" style="fill: #21918c; stroke: #21918c"/>
     <use xlink:href="#mfcf5602460" x="77.536" y="233.810686" style="fill: #21918c; stroke: #21918c"/>
     <use xlink:href="#mfcf5602460" x="84.2025" y="299.639672" style="fill: #21918c; stroke: #21918c"/>
     <use xlink:href="#mfcf5602460" x="90.869" y="283.840715" style="fill: #21918c; stroke: #21918c"/>
     <use xlink:href="#mfcf5602460" x="97.5355" y="307.539151" style="fill: #21918c; stroke: #21918c"/>
     <use xlink:href="#mfcf5602460" x="104.202" y="333.870745" style="fill: #21918c; stroke: #21918c"/>
     <use xlink:href="#mfcf5602460" x="110.8685" y="284.718435" style="fill: #21918c; stroke: #21918c"/>
     <use xlink:href="#mfcf5602460" x="117.535" y="350.547422" style="fill: #21918c; stroke: #21918c"/>
     <use xlink:href="#mfcf5602460" x="124.2015" y="358.4469" style="fill: #21918c; stroke: #21918c"/>
     <use xlink:href="#mfcf5602460" x="130.868" y="333.870745" style="fill: #21918c; stroke: #21918c"/>
     <use xlink:href="#mfcf5602460" x="137.5345" y="320.704948" style="fill: #21918c; stroke: #21918c"/>
     <use xlink:href="#mfcf5602460" x="144.201" y="423.398167" style="fill: #21918c; stroke: #21918c"/>
     <use xlink:href="#mfcf5602460" x="150.8675" y="388.289374" style="fill: #21918c; stroke: #21918c"/>
     <use xlink:href="#mfcf5602460" x="157.534" y="339.137064" style="fill: #21918c; stroke: #21918c"/>
     <use xlink:href="#mfcf5602460" x="164.2005" y="359.32462" style="fill: #21918c; stroke: #21918c"/>
     <use xlink:href="#mfcf5602460" x="170.867" y="395.311133" style="fill: #21918c; stroke: #21918c"/>
     <use xlink:href="#mfcf5602460" x="177.5335" y="330.359866" style="fill: #21918c; stroke: #21918c"/>
     <use xlink:href="#mfcf5602460" x="184.2" y="309.29459" style="fill: #21918c; stroke: #21918c"/>
     <use xlink:href="#mfcf5602460" x="190.8665" y="287.351595" style="fill: #21918c; stroke: #21918c"/>
     <use xlink:href="#mfcf5602460" x="197.533" y="402.332891" style="fill: #21918c; stroke: #21918c"/>
     <use xlink:href="#mfcf5602460" x="204.1995" y="303.150551" style="fill: #21918c; stroke: #21918c"/>
     <use xlink:href="#mfcf5602460" x="210.866" y="304.905991" style="fill: #21918c; stroke: #21918c"/>
     <use xlink:href="#mfcf5602460" x="217.5325" y="384.778495" style="fill: #21918c; stroke: #21918c"/>
     <use xlink:href="#mfcf5602460" x="224.199" y="394.433413" style="fill: #21918c; stroke: #21918c"/>
     <use xlink:href="#mfcf5602460" x="230.8655" y="353.180581" style="fill: #21918c; stroke: #21918c"/>
     <use xlink:href="#mfcf5602460" x="237.532" y="265.408599" style="fill: #21918c; stroke: #21918c"/>
     <use xlink:href="#mfcf5602460" x="244.1985" y="361.08006" style="fill: #21918c; stroke: #21918c"/>
     <use xlink:href="#mfcf5602460" x="250.865" y="394.433413" style="fill: #21918c; stroke: #21918c"/>
     <use xlink:href="#mfcf5602460" x="257.5315" y="286.473875" style="fill: #21918c; stroke: #21918c"/>
     <use xlink:href="#mfcf5602460" x="264.198" y="368.979538" style="fill: #21918c; stroke: #21918c"/>
     <use xlink:href="#mfcf5602460" x="270.8645" y="286.473875" style="fill: #21918c; stroke: #21918c"/>
     <use xlink:href="#mfcf5602460" x="277.531" y="332.115306" style="fill: #21918c; stroke: #21918c"/>
     <use xlink:href="#mfcf5602460" x="284.1975" y="457.62924" style="fill: #21918c; stroke: #21918c"/>
     <use xlink:href="#mfcf5602460" x="290.864" y="332.115306" style="fill: #21918c; stroke: #21918c"/>
     <use xlink:href="#mfcf5602460" x="297.5305" y="464.650999" style="fill: #21918c; stroke: #21918c"/>
     <use xlink:href="#mfcf5602460" x="304.197" y="462.895559" style="fill: #21918c; stroke: #21918c"/>
     <use xlink:href="#mfcf5602460" x="310.8635" y="372.490417" style="fill: #21918c; stroke: #21918c"/>
     <use xlink:href="#mfcf5602460" x="317.53" y="380.389896" style="fill: #21918c; stroke: #21918c"/>
     <use xlink:href="#mfcf5602460" x="324.1965" y="354.936021" style="fill: #21918c; stroke: #21918c"/>
     <use xlink:href="#mfcf5602460" x="330.863" y="361.957779" style="fill: #21918c; stroke: #21918c"/>
     <use xlink:href="#mfcf5602460" x="337.5295" y="475.183636" style="fill: #21918c; stroke: #21918c"/>
     <use xlink:href="#mfcf5602460" x="344.196" y="382.145335" style="fill: #21918c; stroke: #21918c"/>
     <use xlink:href="#mfcf5602460" x="350.8625" y="354.058301" style="fill: #21918c; stroke: #21918c"/>
     <use xlink:href="#mfcf5602460" x="357.529" y="259.26456" style="fill: #21918c; stroke: #21918c"/>
     <use xlink:href="#mfcf5602460" x="364.1955" y="301.395112" style="fill: #21918c; stroke: #21918c"/>
     <use xlink:href="#mfcf5602460" x="370.862" y="376.879016" style="fill: #21918c; stroke: #21918c"/>
     <use xlink:href="#mfcf5602460" x="377.5285" y="457.62924" style="fill: #21918c; stroke: #21918c"/>
     <use xlink:href="#mfcf5602460" x="384.195" y="368.101818" style="fill: #21918c; stroke: #21918c"/>
    </g>
   </g>
   <g id="patch_3">
    <path d="M 50.87 496.6 
L 50.87 25.44 
" style="fill: none; stroke: #000000; stroke-width: 0.8; stroke-linejoin: miter; stroke-linecap: square"/>
   </g>
   <g id="patch_4">
    <path d="M 384.195 496.6 
L 384.195 25.44 
" style="fill: none; stroke: #000000; stroke-width: 0.8; stroke-linejoin: miter; stroke-linecap: square"/>
   </g>
   <g id="patch_5">
    <path d="M 50.87 496.6 
L 384.195 496.6 
" style="fill: none; stroke: #000000; stroke-width: 0.8; stroke-linejoin: miter; stroke-linecap: square"/>
   </g>
   <g id="patch_6">
    <path d="M 50.87 25.44 
L 384.195 25.44 
" style="fill: none; stroke: #000000; stroke-width: 0.8; stroke-linejoin: miter; stroke-linecap: square"/>
   </g>
   <g id="text_14">
    <!-- Training and Validation Loss -->
    <g transform="translate(148.029063 19.44) scale(0.12 -0.12)">
     <defs>
      <path id="TimesNewRomanPSMT-54" d="M 3703 4238 
L 3750 3244 
L 3631 3244 
Q 3597 3506 3538 3619 
Q 3441 3800 3280 3886 
Q 3119 3972 2856 3972 
L 2259 3972 
L 2259 734 
Q 2259 344 2344 247 
Q 2463 116 2709 116 
L 2856 116 
L 2856 0 
L 1059 0 
L 1059 116 
L 1209 116 
Q 1478 116 1591 278 
Q 1659 378 1659 734 
L 1659 3972 
L 1150 3972 
Q 853 3972 728 3928 
Q 566 3869 450 3700 
Q 334 3531 313 3244 
L 194 3244 
L 244 4238 
L 3703 4238 
z
" transform="scale(0.015625)"/>
      <path id="TimesNewRomanPSMT-72" d="M 1038 2947 
L 1038 2303 
Q 1397 2947 1775 2947 
Q 1947 2947 2059 2842 
Q 2172 2738 2172 2600 
Q 2172 2478 2090 2393 
Q 2009 2309 1897 2309 
Q 1788 2309 1652 2417 
Q 1516 2525 1450 2525 
Q 1394 2525 1328 2463 
Q 1188 2334 1038 2041 
L 1038 669 
Q 1038 431 1097 309 
Q 1138 225 1241 169 
Q 1344 113 1538 113 
L 1538 0 
L 72 0 
L 72 113 
Q 291 113 397 181 
Q 475 231 506 341 
Q 522 394 522 644 
L 522 1753 
Q 522 2253 501 2348 
Q 481 2444 426 2487 
Q 372 2531 291 2531 
Q 194 2531 72 2484 
L 41 2597 
L 906 2947 
L 1038 2947 
z
" transform="scale(0.015625)"/>
      <path id="TimesNewRomanPSMT-61" d="M 1822 413 
Q 1381 72 1269 19 
Q 1100 -59 909 -59 
Q 613 -59 420 144 
Q 228 347 228 678 
Q 228 888 322 1041 
Q 450 1253 767 1440 
Q 1084 1628 1822 1897 
L 1822 2009 
Q 1822 2438 1686 2597 
Q 1550 2756 1291 2756 
Q 1094 2756 978 2650 
Q 859 2544 859 2406 
L 866 2225 
Q 866 2081 792 2003 
Q 719 1925 600 1925 
Q 484 1925 411 2006 
Q 338 2088 338 2228 
Q 338 2497 613 2722 
Q 888 2947 1384 2947 
Q 1766 2947 2009 2819 
Q 2194 2722 2281 2516 
Q 2338 2381 2338 1966 
L 2338 994 
Q 2338 584 2353 492 
Q 2369 400 2405 369 
Q 2441 338 2488 338 
Q 2538 338 2575 359 
Q 2641 400 2828 588 
L 2828 413 
Q 2478 -56 2159 -56 
Q 2006 -56 1915 50 
Q 1825 156 1822 413 
z
M 1822 616 
L 1822 1706 
Q 1350 1519 1213 1441 
Q 966 1303 859 1153 
Q 753 1003 753 825 
Q 753 600 887 451 
Q 1022 303 1197 303 
Q 1434 303 1822 616 
z
" transform="scale(0.015625)"/>
      <path id="TimesNewRomanPSMT-69" d="M 928 4444 
Q 1059 4444 1151 4351 
Q 1244 4259 1244 4128 
Q 1244 3997 1151 3903 
Q 1059 3809 928 3809 
Q 797 3809 703 3903 
Q 609 3997 609 4128 
Q 609 4259 701 4351 
Q 794 4444 928 4444 
z
M 1188 2947 
L 1188 647 
Q 1188 378 1227 289 
Q 1266 200 1342 156 
Q 1419 113 1622 113 
L 1622 0 
L 231 0 
L 231 113 
Q 441 113 512 153 
Q 584 194 626 287 
Q 669 381 669 647 
L 669 1750 
Q 669 2216 641 2353 
Q 619 2453 572 2492 
Q 525 2531 444 2531 
Q 356 2531 231 2484 
L 188 2597 
L 1050 2947 
L 1188 2947 
z
" transform="scale(0.015625)"/>
      <path id="TimesNewRomanPSMT-6e" d="M 1034 2341 
Q 1538 2947 1994 2947 
Q 2228 2947 2397 2830 
Q 2566 2713 2666 2444 
Q 2734 2256 2734 1869 
L 2734 647 
Q 2734 375 2778 278 
Q 2813 200 2889 156 
Q 2966 113 3172 113 
L 3172 0 
L 1756 0 
L 1756 113 
L 1816 113 
Q 2016 113 2095 173 
Q 2175 234 2206 353 
Q 2219 400 2219 647 
L 2219 1819 
Q 2219 2209 2117 2386 
Q 2016 2563 1775 2563 
Q 1403 2563 1034 2156 
L 1034 647 
Q 1034 356 1069 288 
Q 1113 197 1189 155 
Q 1266 113 1500 113 
L 1500 0 
L 84 0 
L 84 113 
L 147 113 
Q 366 113 442 223 
Q 519 334 519 647 
L 519 1709 
Q 519 2225 495 2337 
Q 472 2450 423 2490 
Q 375 2531 294 2531 
Q 206 2531 84 2484 
L 38 2597 
L 900 2947 
L 1034 2947 
L 1034 2341 
z
" transform="scale(0.015625)"/>
      <path id="TimesNewRomanPSMT-67" d="M 966 1044 
Q 703 1172 562 1401 
Q 422 1631 422 1909 
Q 422 2334 742 2640 
Q 1063 2947 1563 2947 
Q 1972 2947 2272 2747 
L 2878 2747 
Q 3013 2747 3034 2739 
Q 3056 2731 3066 2713 
Q 3084 2684 3084 2613 
Q 3084 2531 3069 2500 
Q 3059 2484 3036 2475 
Q 3013 2466 2878 2466 
L 2506 2466 
Q 2681 2241 2681 1891 
Q 2681 1491 2375 1206 
Q 2069 922 1553 922 
Q 1341 922 1119 984 
Q 981 866 932 777 
Q 884 688 884 625 
Q 884 572 936 522 
Q 988 472 1138 450 
Q 1225 438 1575 428 
Q 2219 413 2409 384 
Q 2700 344 2873 169 
Q 3047 -6 3047 -263 
Q 3047 -616 2716 -925 
Q 2228 -1381 1444 -1381 
Q 841 -1381 425 -1109 
Q 191 -953 191 -784 
Q 191 -709 225 -634 
Q 278 -519 444 -313 
Q 466 -284 763 25 
Q 600 122 533 198 
Q 466 275 466 372 
Q 466 481 555 628 
Q 644 775 966 1044 
z
M 1509 2797 
Q 1278 2797 1122 2612 
Q 966 2428 966 2047 
Q 966 1553 1178 1281 
Q 1341 1075 1591 1075 
Q 1828 1075 1981 1253 
Q 2134 1431 2134 1813 
Q 2134 2309 1919 2591 
Q 1759 2797 1509 2797 
z
M 934 0 
Q 788 -159 713 -296 
Q 638 -434 638 -550 
Q 638 -700 819 -813 
Q 1131 -1006 1722 -1006 
Q 2284 -1006 2551 -807 
Q 2819 -609 2819 -384 
Q 2819 -222 2659 -153 
Q 2497 -84 2016 -72 
Q 1313 -53 934 0 
z
" transform="scale(0.015625)"/>
      <path id="TimesNewRomanPSMT-20" transform="scale(0.015625)"/>
      <path id="TimesNewRomanPSMT-64" d="M 2222 322 
Q 2013 103 1813 7 
Q 1613 -88 1381 -88 
Q 913 -88 563 304 
Q 213 697 213 1313 
Q 213 1928 600 2439 
Q 988 2950 1597 2950 
Q 1975 2950 2222 2709 
L 2222 3238 
Q 2222 3728 2198 3840 
Q 2175 3953 2125 3993 
Q 2075 4034 2000 4034 
Q 1919 4034 1784 3984 
L 1744 4094 
L 2597 4444 
L 2738 4444 
L 2738 1134 
Q 2738 631 2761 520 
Q 2784 409 2836 365 
Q 2888 322 2956 322 
Q 3041 322 3181 375 
L 3216 266 
L 2366 -88 
L 2222 -88 
L 2222 322 
z
M 2222 541 
L 2222 2016 
Q 2203 2228 2109 2403 
Q 2016 2578 1861 2667 
Q 1706 2756 1559 2756 
Q 1284 2756 1069 2509 
Q 784 2184 784 1559 
Q 784 928 1059 592 
Q 1334 256 1672 256 
Q 1956 256 2222 541 
z
" transform="scale(0.015625)"/>
      <path id="TimesNewRomanPSMT-56" d="M 4544 4238 
L 4544 4122 
Q 4319 4081 4203 3978 
Q 4038 3825 3909 3509 
L 2431 -97 
L 2316 -97 
L 728 3556 
Q 606 3838 556 3900 
Q 478 3997 364 4051 
Q 250 4106 56 4122 
L 56 4238 
L 1788 4238 
L 1788 4122 
Q 1494 4094 1406 4022 
Q 1319 3950 1319 3838 
Q 1319 3681 1463 3350 
L 2541 866 
L 3541 3319 
Q 3688 3681 3688 3822 
Q 3688 3913 3597 3995 
Q 3506 4078 3291 4113 
Q 3275 4116 3238 4122 
L 3238 4238 
L 4544 4238 
z
" transform="scale(0.015625)"/>
      <path id="TimesNewRomanPSMT-6c" d="M 1184 4444 
L 1184 647 
Q 1184 378 1223 290 
Q 1263 203 1344 158 
Q 1425 113 1647 113 
L 1647 0 
L 244 0 
L 244 113 
Q 441 113 512 153 
Q 584 194 625 287 
Q 666 381 666 647 
L 666 3247 
Q 666 3731 644 3842 
Q 622 3953 573 3993 
Q 525 4034 450 4034 
Q 369 4034 244 3984 
L 191 4094 
L 1044 4444 
L 1184 4444 
z
" transform="scale(0.015625)"/>
      <path id="TimesNewRomanPSMT-74" d="M 1031 3803 
L 1031 2863 
L 1700 2863 
L 1700 2644 
L 1031 2644 
L 1031 788 
Q 1031 509 1111 412 
Q 1191 316 1316 316 
Q 1419 316 1516 380 
Q 1613 444 1666 569 
L 1788 569 
Q 1678 263 1478 108 
Q 1278 -47 1066 -47 
Q 922 -47 784 33 
Q 647 113 581 261 
Q 516 409 516 719 
L 516 2644 
L 63 2644 
L 63 2747 
Q 234 2816 414 2980 
Q 594 3144 734 3369 
Q 806 3488 934 3803 
L 1031 3803 
z
" transform="scale(0.015625)"/>
     </defs>
     <use xlink:href="#TimesNewRomanPSMT-54"/>
     <use xlink:href="#TimesNewRomanPSMT-72" x="57.583984"/>
     <use xlink:href="#TimesNewRomanPSMT-61" x="90.884766"/>
     <use xlink:href="#TimesNewRomanPSMT-69" x="135.269531"/>
     <use xlink:href="#TimesNewRomanPSMT-6e" x="163.052734"/>
     <use xlink:href="#TimesNewRomanPSMT-69" x="213.052734"/>
     <use xlink:href="#TimesNewRomanPSMT-6e" x="240.835938"/>
     <use xlink:href="#TimesNewRomanPSMT-67" x="290.835938"/>
     <use xlink:href="#TimesNewRomanPSMT-20" x="340.835938"/>
     <use xlink:href="#TimesNewRomanPSMT-61" x="365.835938"/>
     <use xlink:href="#TimesNewRomanPSMT-6e" x="410.220703"/>
     <use xlink:href="#TimesNewRomanPSMT-64" x="460.220703"/>
     <use xlink:href="#TimesNewRomanPSMT-20" x="510.220703"/>
     <use xlink:href="#TimesNewRomanPSMT-56" x="533.470703"/>
     <use xlink:href="#TimesNewRomanPSMT-61" x="594.5625"/>
     <use xlink:href="#TimesNewRomanPSMT-6c" x="638.947266"/>
     <use xlink:href="#TimesNewRomanPSMT-69" x="666.730469"/>
     <use xlink:href="#TimesNewRomanPSMT-64" x="694.513672"/>
     <use xlink:href="#TimesNewRomanPSMT-61" x="744.513672"/>
     <use xlink:href="#TimesNewRomanPSMT-74" x="788.898438"/>
     <use xlink:href="#TimesNewRomanPSMT-69" x="816.681641"/>
     <use xlink:href="#TimesNewRomanPSMT-6f" x="844.464844"/>
     <use xlink:href="#TimesNewRomanPSMT-6e" x="894.464844"/>
     <use xlink:href="#TimesNewRomanPSMT-20" x="944.464844"/>
     <use xlink:href="#TimesNewRomanPSMT-4c" x="969.464844"/>
     <use xlink:href="#TimesNewRomanPSMT-6f" x="1030.548828"/>
     <use xlink:href="#TimesNewRomanPSMT-73" x="1080.548828"/>
     <use xlink:href="#TimesNewRomanPSMT-73" x="1119.464844"/>
    </g>
   </g>
   <g id="legend_1">
    <g id="patch_7">
     <path d="M 392.595 68.97375 
L 482.23125 68.97375 
Q 484.63125 68.97375 484.63125 66.57375 
L 484.63125 33.84 
Q 484.63125 31.44 482.23125 31.44 
L 392.595 31.44 
Q 390.195 31.44 390.195 33.84 
L 390.195 66.57375 
Q 390.195 68.97375 392.595 68.97375 
z
" style="fill: #ffffff; opacity: 0.5; stroke: #000000; stroke-linejoin: miter"/>
    </g>
    <g id="line2d_25">
     <path d="M 394.995 40.44 
L 406.995 40.44 
L 418.995 40.44 
" style="fill: none; stroke-dasharray: 7.4,3.2; stroke-dashoffset: 0; stroke: #414487; stroke-width: 2"/>
     <g>
      <use xlink:href="#me6bade3461" x="406.995" y="40.44" style="fill: #414487; stroke: #414487"/>
     </g>
    </g>
    <g id="text_15">
     <!-- Train Loss -->
     <g transform="translate(428.595 44.64) scale(0.12 -0.12)">
      <use xlink:href="#TimesNewRomanPSMT-54"/>
      <use xlink:href="#TimesNewRomanPSMT-72" x="57.583984"/>
      <use xlink:href="#TimesNewRomanPSMT-61" x="90.884766"/>
      <use xlink:href="#TimesNewRomanPSMT-69" x="135.269531"/>
      <use xlink:href="#TimesNewRomanPSMT-6e" x="163.052734"/>
      <use xlink:href="#TimesNewRomanPSMT-20" x="213.052734"/>
      <use xlink:href="#TimesNewRomanPSMT-4c" x="238.052734"/>
      <use xlink:href="#TimesNewRomanPSMT-6f" x="299.136719"/>
      <use xlink:href="#TimesNewRomanPSMT-73" x="349.136719"/>
      <use xlink:href="#TimesNewRomanPSMT-73" x="388.052734"/>
     </g>
    </g>
    <g id="line2d_26">
     <path d="M 394.995 57.406875 
L 406.995 57.406875 
L 418.995 57.406875 
" style="fill: none; stroke-dasharray: 7.4,3.2; stroke-dashoffset: 0; stroke: #21918c; stroke-width: 2"/>
     <g>
      <use xlink:href="#mfcf5602460" x="406.995" y="57.406875" style="fill: #21918c; stroke: #21918c"/>
     </g>
    </g>
    <g id="text_16">
     <!-- Val Loss -->
     <g transform="translate(428.595 61.606875) scale(0.12 -0.12)">
      <use xlink:href="#TimesNewRomanPSMT-56"/>
      <use xlink:href="#TimesNewRomanPSMT-61" x="61.091797"/>
      <use xlink:href="#TimesNewRomanPSMT-6c" x="105.476562"/>
      <use xlink:href="#TimesNewRomanPSMT-20" x="133.259766"/>
      <use xlink:href="#TimesNewRomanPSMT-4c" x="158.259766"/>
      <use xlink:href="#TimesNewRomanPSMT-6f" x="219.34375"/>
      <use xlink:href="#TimesNewRomanPSMT-73" x="269.34375"/>
      <use xlink:href="#TimesNewRomanPSMT-73" x="308.259766"/>
     </g>
    </g>
   </g>
  </g>
  <g id="axes_2">
   <g id="patch_8">
    <path d="M 540.515 496.6 
L 873.84 496.6 
L 873.84 25.44 
L 540.515 25.44 
z
" style="fill: #ffffff"/>
   </g>
   <g id="matplotlib.axis_3">
    <g id="xtick_7">
     <g id="line2d_27">
      <path d="M 540.515 496.6 
L 540.515 25.44 
" clip-path="url(#p0c7a3b04a5)" style="fill: none; stroke-dasharray: 2.96,1.28; stroke-dashoffset: 0; stroke: #d3d3d3; stroke-width: 0.8"/>
     </g>
     <g id="line2d_28">
      <g>
       <use xlink:href="#ma8a4ad003e" x="540.515" y="496.6" style="stroke: #000000; stroke-width: 0.8"/>
      </g>
     </g>
     <g id="text_17">
      <!-- 0 -->
      <g transform="translate(538.015 510.54375) scale(0.1 -0.1)">
       <use xlink:href="#TimesNewRomanPSMT-30"/>
      </g>
     </g>
    </g>
    <g id="xtick_8">
     <g id="line2d_29">
      <path d="M 607.18 496.6 
L 607.18 25.44 
" clip-path="url(#p0c7a3b04a5)" style="fill: none; stroke-dasharray: 2.96,1.28; stroke-dashoffset: 0; stroke: #d3d3d3; stroke-width: 0.8"/>
     </g>
     <g id="line2d_30">
      <g>
       <use xlink:href="#ma8a4ad003e" x="607.18" y="496.6" style="stroke: #000000; stroke-width: 0.8"/>
      </g>
     </g>
     <g id="text_18">
      <!-- 10 -->
      <g transform="translate(602.18 510.54375) scale(0.1 -0.1)">
       <use xlink:href="#TimesNewRomanPSMT-31"/>
       <use xlink:href="#TimesNewRomanPSMT-30" x="50"/>
      </g>
     </g>
    </g>
    <g id="xtick_9">
     <g id="line2d_31">
      <path d="M 673.845 496.6 
L 673.845 25.44 
" clip-path="url(#p0c7a3b04a5)" style="fill: none; stroke-dasharray: 2.96,1.28; stroke-dashoffset: 0; stroke: #d3d3d3; stroke-width: 0.8"/>
     </g>
     <g id="line2d_32">
      <g>
       <use xlink:href="#ma8a4ad003e" x="673.845" y="496.6" style="stroke: #000000; stroke-width: 0.8"/>
      </g>
     </g>
     <g id="text_19">
      <!-- 20 -->
      <g transform="translate(668.845 510.54375) scale(0.1 -0.1)">
       <use xlink:href="#TimesNewRomanPSMT-32"/>
       <use xlink:href="#TimesNewRomanPSMT-30" x="50"/>
      </g>
     </g>
    </g>
    <g id="xtick_10">
     <g id="line2d_33">
      <path d="M 740.51 496.6 
L 740.51 25.44 
" clip-path="url(#p0c7a3b04a5)" style="fill: none; stroke-dasharray: 2.96,1.28; stroke-dashoffset: 0; stroke: #d3d3d3; stroke-width: 0.8"/>
     </g>
     <g id="line2d_34">
      <g>
       <use xlink:href="#ma8a4ad003e" x="740.51" y="496.6" style="stroke: #000000; stroke-width: 0.8"/>
      </g>
     </g>
     <g id="text_20">
      <!-- 30 -->
      <g transform="translate(735.51 510.54375) scale(0.1 -0.1)">
       <use xlink:href="#TimesNewRomanPSMT-33"/>
       <use xlink:href="#TimesNewRomanPSMT-30" x="50"/>
      </g>
     </g>
    </g>
    <g id="xtick_11">
     <g id="line2d_35">
      <path d="M 807.175 496.6 
L 807.175 25.44 
" clip-path="url(#p0c7a3b04a5)" style="fill: none; stroke-dasharray: 2.96,1.28; stroke-dashoffset: 0; stroke: #d3d3d3; stroke-width: 0.8"/>
     </g>
     <g id="line2d_36">
      <g>
       <use xlink:href="#ma8a4ad003e" x="807.175" y="496.6" style="stroke: #000000; stroke-width: 0.8"/>
      </g>
     </g>
     <g id="text_21">
      <!-- 40 -->
      <g transform="translate(802.175 510.54375) scale(0.1 -0.1)">
       <use xlink:href="#TimesNewRomanPSMT-34"/>
       <use xlink:href="#TimesNewRomanPSMT-30" x="50"/>
      </g>
     </g>
    </g>
    <g id="xtick_12">
     <g id="line2d_37">
      <path d="M 873.84 496.6 
L 873.84 25.44 
" clip-path="url(#p0c7a3b04a5)" style="fill: none; stroke-dasharray: 2.96,1.28; stroke-dashoffset: 0; stroke: #d3d3d3; stroke-width: 0.8"/>
     </g>
     <g id="line2d_38">
      <g>
       <use xlink:href="#ma8a4ad003e" x="873.84" y="496.6" style="stroke: #000000; stroke-width: 0.8"/>
      </g>
     </g>
     <g id="text_22">
      <!-- 50 -->
      <g transform="translate(868.84 510.54375) scale(0.1 -0.1)">
       <use xlink:href="#TimesNewRomanPSMT-35"/>
       <use xlink:href="#TimesNewRomanPSMT-30" x="50"/>
      </g>
     </g>
    </g>
    <g id="text_23">
     <!-- Epoch -->
     <g transform="translate(691.849375 525.015312) scale(0.12 -0.12)">
      <use xlink:href="#TimesNewRomanPSMT-45"/>
      <use xlink:href="#TimesNewRomanPSMT-70" x="61.083984"/>
      <use xlink:href="#TimesNewRomanPSMT-6f" x="111.083984"/>
      <use xlink:href="#TimesNewRomanPSMT-63" x="161.083984"/>
      <use xlink:href="#TimesNewRomanPSMT-68" x="205.46875"/>
     </g>
    </g>
   </g>
   <g id="matplotlib.axis_4">
    <g id="ytick_6">
     <g id="line2d_39">
      <path d="M 540.515 489.953542 
L 873.84 489.953542 
" clip-path="url(#p0c7a3b04a5)" style="fill: none; stroke-dasharray: 2.96,1.28; stroke-dashoffset: 0; stroke: #d3d3d3; stroke-width: 0.8"/>
     </g>
     <g id="line2d_40">
      <g>
       <use xlink:href="#m6232a96b5d" x="540.515" y="489.953542" style="stroke: #000000; stroke-width: 0.8"/>
      </g>
     </g>
     <g id="text_24">
      <!-- 0.772 -->
      <g transform="translate(511.015 493.425417) scale(0.1 -0.1)">
       <defs>
        <path id="TimesNewRomanPSMT-37" d="M 644 4238 
L 2916 4238 
L 2916 4119 
L 1503 -88 
L 1153 -88 
L 2419 3728 
L 1253 3728 
Q 900 3728 750 3644 
Q 488 3500 328 3200 
L 238 3234 
L 644 4238 
z
" transform="scale(0.015625)"/>
       </defs>
       <use xlink:href="#TimesNewRomanPSMT-30"/>
       <use xlink:href="#TimesNewRomanPSMT-2e" x="50"/>
       <use xlink:href="#TimesNewRomanPSMT-37" x="75"/>
       <use xlink:href="#TimesNewRomanPSMT-37" x="125"/>
       <use xlink:href="#TimesNewRomanPSMT-32" x="175"/>
      </g>
     </g>
    </g>
    <g id="ytick_7">
     <g id="line2d_41">
      <path d="M 540.515 430.873918 
L 873.84 430.873918 
" clip-path="url(#p0c7a3b04a5)" style="fill: none; stroke-dasharray: 2.96,1.28; stroke-dashoffset: 0; stroke: #d3d3d3; stroke-width: 0.8"/>
     </g>
     <g id="line2d_42">
      <g>
       <use xlink:href="#m6232a96b5d" x="540.515" y="430.873918" style="stroke: #000000; stroke-width: 0.8"/>
      </g>
     </g>
     <g id="text_25">
      <!-- 0.774 -->
      <g transform="translate(511.015 434.345793) scale(0.1 -0.1)">
       <use xlink:href="#TimesNewRomanPSMT-30"/>
       <use xlink:href="#TimesNewRomanPSMT-2e" x="50"/>
       <use xlink:href="#TimesNewRomanPSMT-37" x="75"/>
       <use xlink:href="#TimesNewRomanPSMT-37" x="125"/>
       <use xlink:href="#TimesNewRomanPSMT-34" x="175"/>
      </g>
     </g>
    </g>
    <g id="ytick_8">
     <g id="line2d_43">
      <path d="M 540.515 371.794295 
L 873.84 371.794295 
" clip-path="url(#p0c7a3b04a5)" style="fill: none; stroke-dasharray: 2.96,1.28; stroke-dashoffset: 0; stroke: #d3d3d3; stroke-width: 0.8"/>
     </g>
     <g id="line2d_44">
      <g>
       <use xlink:href="#m6232a96b5d" x="540.515" y="371.794295" style="stroke: #000000; stroke-width: 0.8"/>
      </g>
     </g>
     <g id="text_26">
      <!-- 0.776 -->
      <g transform="translate(511.015 375.26617) scale(0.1 -0.1)">
       <defs>
        <path id="TimesNewRomanPSMT-36" d="M 2869 4325 
L 2869 4209 
Q 2456 4169 2195 4045 
Q 1934 3922 1679 3669 
Q 1425 3416 1258 3105 
Q 1091 2794 978 2366 
Q 1428 2675 1881 2675 
Q 2316 2675 2634 2325 
Q 2953 1975 2953 1425 
Q 2953 894 2631 456 
Q 2244 -75 1606 -75 
Q 1172 -75 869 213 
Q 275 772 275 1663 
Q 275 2231 503 2743 
Q 731 3256 1154 3653 
Q 1578 4050 1965 4187 
Q 2353 4325 2688 4325 
L 2869 4325 
z
M 925 2138 
Q 869 1716 869 1456 
Q 869 1156 980 804 
Q 1091 453 1309 247 
Q 1469 100 1697 100 
Q 1969 100 2183 356 
Q 2397 613 2397 1088 
Q 2397 1622 2184 2012 
Q 1972 2403 1581 2403 
Q 1463 2403 1327 2353 
Q 1191 2303 925 2138 
z
" transform="scale(0.015625)"/>
       </defs>
       <use xlink:href="#TimesNewRomanPSMT-30"/>
       <use xlink:href="#TimesNewRomanPSMT-2e" x="50"/>
       <use xlink:href="#TimesNewRomanPSMT-37" x="75"/>
       <use xlink:href="#TimesNewRomanPSMT-37" x="125"/>
       <use xlink:href="#TimesNewRomanPSMT-36" x="175"/>
      </g>
     </g>
    </g>
    <g id="ytick_9">
     <g id="line2d_45">
      <path d="M 540.515 312.714671 
L 873.84 312.714671 
" clip-path="url(#p0c7a3b04a5)" style="fill: none; stroke-dasharray: 2.96,1.28; stroke-dashoffset: 0; stroke: #d3d3d3; stroke-width: 0.8"/>
     </g>
     <g id="line2d_46">
      <g>
       <use xlink:href="#m6232a96b5d" x="540.515" y="312.714671" style="stroke: #000000; stroke-width: 0.8"/>
      </g>
     </g>
     <g id="text_27">
      <!-- 0.778 -->
      <g transform="translate(511.015 316.186546) scale(0.1 -0.1)">
       <use xlink:href="#TimesNewRomanPSMT-30"/>
       <use xlink:href="#TimesNewRomanPSMT-2e" x="50"/>
       <use xlink:href="#TimesNewRomanPSMT-37" x="75"/>
       <use xlink:href="#TimesNewRomanPSMT-37" x="125"/>
       <use xlink:href="#TimesNewRomanPSMT-38" x="175"/>
      </g>
     </g>
    </g>
    <g id="ytick_10">
     <g id="line2d_47">
      <path d="M 540.515 253.635047 
L 873.84 253.635047 
" clip-path="url(#p0c7a3b04a5)" style="fill: none; stroke-dasharray: 2.96,1.28; stroke-dashoffset: 0; stroke: #d3d3d3; stroke-width: 0.8"/>
     </g>
     <g id="line2d_48">
      <g>
       <use xlink:href="#m6232a96b5d" x="540.515" y="253.635047" style="stroke: #000000; stroke-width: 0.8"/>
      </g>
     </g>
     <g id="text_28">
      <!-- 0.780 -->
      <g transform="translate(511.015 257.106922) scale(0.1 -0.1)">
       <use xlink:href="#TimesNewRomanPSMT-30"/>
       <use xlink:href="#TimesNewRomanPSMT-2e" x="50"/>
       <use xlink:href="#TimesNewRomanPSMT-37" x="75"/>
       <use xlink:href="#TimesNewRomanPSMT-38" x="125"/>
       <use xlink:href="#TimesNewRomanPSMT-30" x="175"/>
      </g>
     </g>
    </g>
    <g id="ytick_11">
     <g id="line2d_49">
      <path d="M 540.515 194.555423 
L 873.84 194.555423 
" clip-path="url(#p0c7a3b04a5)" style="fill: none; stroke-dasharray: 2.96,1.28; stroke-dashoffset: 0; stroke: #d3d3d3; stroke-width: 0.8"/>
     </g>
     <g id="line2d_50">
      <g>
       <use xlink:href="#m6232a96b5d" x="540.515" y="194.555423" style="stroke: #000000; stroke-width: 0.8"/>
      </g>
     </g>
     <g id="text_29">
      <!-- 0.782 -->
      <g transform="translate(511.015 198.027298) scale(0.1 -0.1)">
       <use xlink:href="#TimesNewRomanPSMT-30"/>
       <use xlink:href="#TimesNewRomanPSMT-2e" x="50"/>
       <use xlink:href="#TimesNewRomanPSMT-37" x="75"/>
       <use xlink:href="#TimesNewRomanPSMT-38" x="125"/>
       <use xlink:href="#TimesNewRomanPSMT-32" x="175"/>
      </g>
     </g>
    </g>
    <g id="ytick_12">
     <g id="line2d_51">
      <path d="M 540.515 135.475799 
L 873.84 135.475799 
" clip-path="url(#p0c7a3b04a5)" style="fill: none; stroke-dasharray: 2.96,1.28; stroke-dashoffset: 0; stroke: #d3d3d3; stroke-width: 0.8"/>
     </g>
     <g id="line2d_52">
      <g>
       <use xlink:href="#m6232a96b5d" x="540.515" y="135.475799" style="stroke: #000000; stroke-width: 0.8"/>
      </g>
     </g>
     <g id="text_30">
      <!-- 0.784 -->
      <g transform="translate(511.015 138.947674) scale(0.1 -0.1)">
       <use xlink:href="#TimesNewRomanPSMT-30"/>
       <use xlink:href="#TimesNewRomanPSMT-2e" x="50"/>
       <use xlink:href="#TimesNewRomanPSMT-37" x="75"/>
       <use xlink:href="#TimesNewRomanPSMT-38" x="125"/>
       <use xlink:href="#TimesNewRomanPSMT-34" x="175"/>
      </g>
     </g>
    </g>
    <g id="ytick_13">
     <g id="line2d_53">
      <path d="M 540.515 76.396176 
L 873.84 76.396176 
" clip-path="url(#p0c7a3b04a5)" style="fill: none; stroke-dasharray: 2.96,1.28; stroke-dashoffset: 0; stroke: #d3d3d3; stroke-width: 0.8"/>
     </g>
     <g id="line2d_54">
      <g>
       <use xlink:href="#m6232a96b5d" x="540.515" y="76.396176" style="stroke: #000000; stroke-width: 0.8"/>
      </g>
     </g>
     <g id="text_31">
      <!-- 0.786 -->
      <g transform="translate(511.015 79.868051) scale(0.1 -0.1)">
       <use xlink:href="#TimesNewRomanPSMT-30"/>
       <use xlink:href="#TimesNewRomanPSMT-2e" x="50"/>
       <use xlink:href="#TimesNewRomanPSMT-37" x="75"/>
       <use xlink:href="#TimesNewRomanPSMT-38" x="125"/>
       <use xlink:href="#TimesNewRomanPSMT-36" x="175"/>
      </g>
     </g>
    </g>
    <g id="text_32">
     <!-- Accuracy -->
     <g transform="translate(504.425625 284.004687) rotate(-90) scale(0.12 -0.12)">
      <defs>
       <path id="TimesNewRomanPSMT-41" d="M 2928 1419 
L 1288 1419 
L 1000 750 
Q 894 503 894 381 
Q 894 284 986 211 
Q 1078 138 1384 116 
L 1384 0 
L 50 0 
L 50 116 
Q 316 163 394 238 
Q 553 388 747 847 
L 2238 4334 
L 2347 4334 
L 3822 809 
Q 4000 384 4145 257 
Q 4291 131 4550 116 
L 4550 0 
L 2878 0 
L 2878 116 
Q 3131 128 3220 200 
Q 3309 272 3309 375 
Q 3309 513 3184 809 
L 2928 1419 
z
M 2841 1650 
L 2122 3363 
L 1384 1650 
L 2841 1650 
z
" transform="scale(0.015625)"/>
       <path id="TimesNewRomanPSMT-75" d="M 2709 2863 
L 2709 1128 
Q 2709 631 2732 520 
Q 2756 409 2807 365 
Q 2859 322 2928 322 
Q 3025 322 3147 375 
L 3191 266 
L 2334 -88 
L 2194 -88 
L 2194 519 
Q 1825 119 1631 15 
Q 1438 -88 1222 -88 
Q 981 -88 804 51 
Q 628 191 559 409 
Q 491 628 491 1028 
L 491 2306 
Q 491 2509 447 2587 
Q 403 2666 317 2708 
Q 231 2750 6 2747 
L 6 2863 
L 1009 2863 
L 1009 947 
Q 1009 547 1148 422 
Q 1288 297 1484 297 
Q 1619 297 1789 381 
Q 1959 466 2194 703 
L 2194 2325 
Q 2194 2569 2105 2655 
Q 2016 2741 1734 2747 
L 1734 2863 
L 2709 2863 
z
" transform="scale(0.015625)"/>
       <path id="TimesNewRomanPSMT-79" d="M 38 2863 
L 1372 2863 
L 1372 2747 
L 1306 2747 
Q 1166 2747 1095 2686 
Q 1025 2625 1025 2534 
Q 1025 2413 1128 2197 
L 1825 753 
L 2466 2334 
Q 2519 2463 2519 2588 
Q 2519 2644 2497 2672 
Q 2472 2706 2419 2726 
Q 2366 2747 2231 2747 
L 2231 2863 
L 3163 2863 
L 3163 2747 
Q 3047 2734 2984 2696 
Q 2922 2659 2847 2556 
Q 2819 2513 2741 2316 
L 1575 -541 
Q 1406 -956 1132 -1168 
Q 859 -1381 606 -1381 
Q 422 -1381 303 -1275 
Q 184 -1169 184 -1031 
Q 184 -900 270 -820 
Q 356 -741 506 -741 
Q 609 -741 788 -809 
Q 913 -856 944 -856 
Q 1038 -856 1148 -759 
Q 1259 -663 1372 -384 
L 1575 113 
L 547 2272 
Q 500 2369 397 2513 
Q 319 2622 269 2659 
Q 197 2709 38 2747 
L 38 2863 
z
" transform="scale(0.015625)"/>
      </defs>
      <use xlink:href="#TimesNewRomanPSMT-41"/>
      <use xlink:href="#TimesNewRomanPSMT-63" x="72.216797"/>
      <use xlink:href="#TimesNewRomanPSMT-63" x="116.601562"/>
      <use xlink:href="#TimesNewRomanPSMT-75" x="160.986328"/>
      <use xlink:href="#TimesNewRomanPSMT-72" x="210.986328"/>
      <use xlink:href="#TimesNewRomanPSMT-61" x="244.287109"/>
      <use xlink:href="#TimesNewRomanPSMT-63" x="288.671875"/>
      <use xlink:href="#TimesNewRomanPSMT-79" x="333.056641"/>
     </g>
    </g>
   </g>
   <g id="line2d_55">
    <path d="M 547.1815 235.91116 
L 553.848 209.325329 
L 560.5145 206.371348 
L 567.181 215.233292 
L 573.8475 206.371348 
L 580.514 197.509404 
L 587.1805 197.509404 
L 593.847 197.509404 
L 600.5135 235.91116 
L 607.18 197.509404 
L 613.8465 200.463386 
L 620.513 283.174859 
L 627.1795 194.555423 
L 633.846 218.187273 
L 640.5125 129.567837 
L 647.179 235.91116 
L 653.8455 215.233292 
L 660.512 238.865141 
L 667.1785 227.049216 
L 673.845 194.555423 
L 680.5115 238.865141 
L 687.178 46.856364 
L 693.8445 212.27931 
L 700.511 173.877555 
L 707.1775 176.831536 
L 713.844 185.69348 
L 720.5105 230.003197 
L 727.177 123.659875 
L 733.8435 159.107649 
L 740.51 191.601442 
L 747.1765 262.496991 
L 753.843 235.91116 
L 760.5095 238.865141 
L 767.176 250.681066 
L 773.8425 244.773103 
L 780.509 232.957179 
L 787.1755 232.957179 
L 793.842 150.245705 
L 800.5085 108.889969 
L 807.175 250.681066 
L 813.8415 215.233292 
L 820.508 197.509404 
L 827.1745 170.923574 
L 833.841 200.463386 
L 840.5075 218.187273 
L 847.174 167.969592 
L 853.8405 333.392539 
L 860.507 218.187273 
L 867.1735 212.27931 
L 873.84 111.84395 
" clip-path="url(#p0c7a3b04a5)" style="fill: none; stroke-dasharray: 7.4,3.2; stroke-dashoffset: 0; stroke: #414487; stroke-width: 2"/>
    <g clip-path="url(#p0c7a3b04a5)">
     <use xlink:href="#me6bade3461" x="547.1815" y="235.91116" style="fill: #414487; stroke: #414487"/>
     <use xlink:href="#me6bade3461" x="553.848" y="209.325329" style="fill: #414487; stroke: #414487"/>
     <use xlink:href="#me6bade3461" x="560.5145" y="206.371348" style="fill: #414487; stroke: #414487"/>
     <use xlink:href="#me6bade3461" x="567.181" y="215.233292" style="fill: #414487; stroke: #414487"/>
     <use xlink:href="#me6bade3461" x="573.8475" y="206.371348" style="fill: #414487; stroke: #414487"/>
     <use xlink:href="#me6bade3461" x="580.514" y="197.509404" style="fill: #414487; stroke: #414487"/>
     <use xlink:href="#me6bade3461" x="587.1805" y="197.509404" style="fill: #414487; stroke: #414487"/>
     <use xlink:href="#me6bade3461" x="593.847" y="197.509404" style="fill: #414487; stroke: #414487"/>
     <use xlink:href="#me6bade3461" x="600.5135" y="235.91116" style="fill: #414487; stroke: #414487"/>
     <use xlink:href="#me6bade3461" x="607.18" y="197.509404" style="fill: #414487; stroke: #414487"/>
     <use xlink:href="#me6bade3461" x="613.8465" y="200.463386" style="fill: #414487; stroke: #414487"/>
     <use xlink:href="#me6bade3461" x="620.513" y="283.174859" style="fill: #414487; stroke: #414487"/>
     <use xlink:href="#me6bade3461" x="627.1795" y="194.555423" style="fill: #414487; stroke: #414487"/>
     <use xlink:href="#me6bade3461" x="633.846" y="218.187273" style="fill: #414487; stroke: #414487"/>
     <use xlink:href="#me6bade3461" x="640.5125" y="129.567837" style="fill: #414487; stroke: #414487"/>
     <use xlink:href="#me6bade3461" x="647.179" y="235.91116" style="fill: #414487; stroke: #414487"/>
     <use xlink:href="#me6bade3461" x="653.8455" y="215.233292" style="fill: #414487; stroke: #414487"/>
     <use xlink:href="#me6bade3461" x="660.512" y="238.865141" style="fill: #414487; stroke: #414487"/>
     <use xlink:href="#me6bade3461" x="667.1785" y="227.049216" style="fill: #414487; stroke: #414487"/>
     <use xlink:href="#me6bade3461" x="673.845" y="194.555423" style="fill: #414487; stroke: #414487"/>
     <use xlink:href="#me6bade3461" x="680.5115" y="238.865141" style="fill: #414487; stroke: #414487"/>
     <use xlink:href="#me6bade3461" x="687.178" y="46.856364" style="fill: #414487; stroke: #414487"/>
     <use xlink:href="#me6bade3461" x="693.8445" y="212.27931" style="fill: #414487; stroke: #414487"/>
     <use xlink:href="#me6bade3461" x="700.511" y="173.877555" style="fill: #414487; stroke: #414487"/>
     <use xlink:href="#me6bade3461" x="707.1775" y="176.831536" style="fill: #414487; stroke: #414487"/>
     <use xlink:href="#me6bade3461" x="713.844" y="185.69348" style="fill: #414487; stroke: #414487"/>
     <use xlink:href="#me6bade3461" x="720.5105" y="230.003197" style="fill: #414487; stroke: #414487"/>
     <use xlink:href="#me6bade3461" x="727.177" y="123.659875" style="fill: #414487; stroke: #414487"/>
     <use xlink:href="#me6bade3461" x="733.8435" y="159.107649" style="fill: #414487; stroke: #414487"/>
     <use xlink:href="#me6bade3461" x="740.51" y="191.601442" style="fill: #414487; stroke: #414487"/>
     <use xlink:href="#me6bade3461" x="747.1765" y="262.496991" style="fill: #414487; stroke: #414487"/>
     <use xlink:href="#me6bade3461" x="753.843" y="235.91116" style="fill: #414487; stroke: #414487"/>
     <use xlink:href="#me6bade3461" x="760.5095" y="238.865141" style="fill: #414487; stroke: #414487"/>
     <use xlink:href="#me6bade3461" x="767.176" y="250.681066" style="fill: #414487; stroke: #414487"/>
     <use xlink:href="#me6bade3461" x="773.8425" y="244.773103" style="fill: #414487; stroke: #414487"/>
     <use xlink:href="#me6bade3461" x="780.509" y="232.957179" style="fill: #414487; stroke: #414487"/>
     <use xlink:href="#me6bade3461" x="787.1755" y="232.957179" style="fill: #414487; stroke: #414487"/>
     <use xlink:href="#me6bade3461" x="793.842" y="150.245705" style="fill: #414487; stroke: #414487"/>
     <use xlink:href="#me6bade3461" x="800.5085" y="108.889969" style="fill: #414487; stroke: #414487"/>
     <use xlink:href="#me6bade3461" x="807.175" y="250.681066" style="fill: #414487; stroke: #414487"/>
     <use xlink:href="#me6bade3461" x="813.8415" y="215.233292" style="fill: #414487; stroke: #414487"/>
     <use xlink:href="#me6bade3461" x="820.508" y="197.509404" style="fill: #414487; stroke: #414487"/>
     <use xlink:href="#me6bade3461" x="827.1745" y="170.923574" style="fill: #414487; stroke: #414487"/>
     <use xlink:href="#me6bade3461" x="833.841" y="200.463386" style="fill: #414487; stroke: #414487"/>
     <use xlink:href="#me6bade3461" x="840.5075" y="218.187273" style="fill: #414487; stroke: #414487"/>
     <use xlink:href="#me6bade3461" x="847.174" y="167.969592" style="fill: #414487; stroke: #414487"/>
     <use xlink:href="#me6bade3461" x="853.8405" y="333.392539" style="fill: #414487; stroke: #414487"/>
     <use xlink:href="#me6bade3461" x="860.507" y="218.187273" style="fill: #414487; stroke: #414487"/>
     <use xlink:href="#me6bade3461" x="867.1735" y="212.27931" style="fill: #414487; stroke: #414487"/>
     <use xlink:href="#me6bade3461" x="873.84" y="111.84395" style="fill: #414487; stroke: #414487"/>
    </g>
   </g>
   <g id="line2d_56">
    <path d="M 547.1815 392.472163 
L 553.848 392.472163 
L 560.5145 392.472163 
L 567.181 327.484577 
L 573.8475 392.472163 
L 580.514 259.543009 
L 587.1805 359.97837 
L 593.847 227.049216 
L 600.5135 327.484577 
L 607.18 277.266897 
L 613.8465 309.76069 
L 620.513 374.748276 
L 627.1795 259.543009 
L 633.846 212.27931 
L 640.5125 309.76069 
L 647.179 424.965956 
L 653.8455 294.990784 
L 660.512 162.06163 
L 667.1785 374.748276 
L 673.845 277.266897 
L 680.5115 359.97837 
L 687.178 46.856364 
L 693.8445 359.97837 
L 700.511 359.97837 
L 707.1775 259.543009 
L 713.844 227.049216 
L 720.5105 259.543009 
L 727.177 410.19605 
L 733.8435 277.266897 
L 740.51 212.27931 
L 747.1765 475.183636 
L 753.843 294.990784 
L 760.5095 244.773103 
L 767.176 345.208464 
L 773.8425 162.06163 
L 780.509 244.773103 
L 787.1755 129.567837 
L 793.842 227.049216 
L 800.5085 227.049216 
L 807.175 294.990784 
L 813.8415 212.27931 
L 820.508 227.049216 
L 827.1745 46.856364 
L 833.841 309.76069 
L 840.5075 227.049216 
L 847.174 309.76069 
L 853.8405 277.266897 
L 860.507 327.484577 
L 867.1735 46.856364 
L 873.84 410.19605 
" clip-path="url(#p0c7a3b04a5)" style="fill: none; stroke-dasharray: 7.4,3.2; stroke-dashoffset: 0; stroke: #21918c; stroke-width: 2"/>
    <g clip-path="url(#p0c7a3b04a5)">
     <use xlink:href="#mfcf5602460" x="547.1815" y="392.472163" style="fill: #21918c; stroke: #21918c"/>
     <use xlink:href="#mfcf5602460" x="553.848" y="392.472163" style="fill: #21918c; stroke: #21918c"/>
     <use xlink:href="#mfcf5602460" x="560.5145" y="392.472163" style="fill: #21918c; stroke: #21918c"/>
     <use xlink:href="#mfcf5602460" x="567.181" y="327.484577" style="fill: #21918c; stroke: #21918c"/>
     <use xlink:href="#mfcf5602460" x="573.8475" y="392.472163" style="fill: #21918c; stroke: #21918c"/>
     <use xlink:href="#mfcf5602460" x="580.514" y="259.543009" style="fill: #21918c; stroke: #21918c"/>
     <use xlink:href="#mfcf5602460" x="587.1805" y="359.97837" style="fill: #21918c; stroke: #21918c"/>
     <use xlink:href="#mfcf5602460" x="593.847" y="227.049216" style="fill: #21918c; stroke: #21918c"/>
     <use xlink:href="#mfcf5602460" x="600.5135" y="327.484577" style="fill: #21918c; stroke: #21918c"/>
     <use xlink:href="#mfcf5602460" x="607.18" y="277.266897" style="fill: #21918c; stroke: #21918c"/>
     <use xlink:href="#mfcf5602460" x="613.8465" y="309.76069" style="fill: #21918c; stroke: #21918c"/>
     <use xlink:href="#mfcf5602460" x="620.513" y="374.748276" style="fill: #21918c; stroke: #21918c"/>
     <use xlink:href="#mfcf5602460" x="627.1795" y="259.543009" style="fill: #21918c; stroke: #21918c"/>
     <use xlink:href="#mfcf5602460" x="633.846" y="212.27931" style="fill: #21918c; stroke: #21918c"/>
     <use xlink:href="#mfcf5602460" x="640.5125" y="309.76069" style="fill: #21918c; stroke: #21918c"/>
     <use xlink:href="#mfcf5602460" x="647.179" y="424.965956" style="fill: #21918c; stroke: #21918c"/>
     <use xlink:href="#mfcf5602460" x="653.8455" y="294.990784" style="fill: #21918c; stroke: #21918c"/>
     <use xlink:href="#mfcf5602460" x="660.512" y="162.06163" style="fill: #21918c; stroke: #21918c"/>
     <use xlink:href="#mfcf5602460" x="667.1785" y="374.748276" style="fill: #21918c; stroke: #21918c"/>
     <use xlink:href="#mfcf5602460" x="673.845" y="277.266897" style="fill: #21918c; stroke: #21918c"/>
     <use xlink:href="#mfcf5602460" x="680.5115" y="359.97837" style="fill: #21918c; stroke: #21918c"/>
     <use xlink:href="#mfcf5602460" x="687.178" y="46.856364" style="fill: #21918c; stroke: #21918c"/>
     <use xlink:href="#mfcf5602460" x="693.8445" y="359.97837" style="fill: #21918c; stroke: #21918c"/>
     <use xlink:href="#mfcf5602460" x="700.511" y="359.97837" style="fill: #21918c; stroke: #21918c"/>
     <use xlink:href="#mfcf5602460" x="707.1775" y="259.543009" style="fill: #21918c; stroke: #21918c"/>
     <use xlink:href="#mfcf5602460" x="713.844" y="227.049216" style="fill: #21918c; stroke: #21918c"/>
     <use xlink:href="#mfcf5602460" x="720.5105" y="259.543009" style="fill: #21918c; stroke: #21918c"/>
     <use xlink:href="#mfcf5602460" x="727.177" y="410.19605" style="fill: #21918c; stroke: #21918c"/>
     <use xlink:href="#mfcf5602460" x="733.8435" y="277.266897" style="fill: #21918c; stroke: #21918c"/>
     <use xlink:href="#mfcf5602460" x="740.51" y="212.27931" style="fill: #21918c; stroke: #21918c"/>
     <use xlink:href="#mfcf5602460" x="747.1765" y="475.183636" style="fill: #21918c; stroke: #21918c"/>
     <use xlink:href="#mfcf5602460" x="753.843" y="294.990784" style="fill: #21918c; stroke: #21918c"/>
     <use xlink:href="#mfcf5602460" x="760.5095" y="244.773103" style="fill: #21918c; stroke: #21918c"/>
     <use xlink:href="#mfcf5602460" x="767.176" y="345.208464" style="fill: #21918c; stroke: #21918c"/>
     <use xlink:href="#mfcf5602460" x="773.8425" y="162.06163" style="fill: #21918c; stroke: #21918c"/>
     <use xlink:href="#mfcf5602460" x="780.509" y="244.773103" style="fill: #21918c; stroke: #21918c"/>
     <use xlink:href="#mfcf5602460" x="787.1755" y="129.567837" style="fill: #21918c; stroke: #21918c"/>
     <use xlink:href="#mfcf5602460" x="793.842" y="227.049216" style="fill: #21918c; stroke: #21918c"/>
     <use xlink:href="#mfcf5602460" x="800.5085" y="227.049216" style="fill: #21918c; stroke: #21918c"/>
     <use xlink:href="#mfcf5602460" x="807.175" y="294.990784" style="fill: #21918c; stroke: #21918c"/>
     <use xlink:href="#mfcf5602460" x="813.8415" y="212.27931" style="fill: #21918c; stroke: #21918c"/>
     <use xlink:href="#mfcf5602460" x="820.508" y="227.049216" style="fill: #21918c; stroke: #21918c"/>
     <use xlink:href="#mfcf5602460" x="827.1745" y="46.856364" style="fill: #21918c; stroke: #21918c"/>
     <use xlink:href="#mfcf5602460" x="833.841" y="309.76069" style="fill: #21918c; stroke: #21918c"/>
     <use xlink:href="#mfcf5602460" x="840.5075" y="227.049216" style="fill: #21918c; stroke: #21918c"/>
     <use xlink:href="#mfcf5602460" x="847.174" y="309.76069" style="fill: #21918c; stroke: #21918c"/>
     <use xlink:href="#mfcf5602460" x="853.8405" y="277.266897" style="fill: #21918c; stroke: #21918c"/>
     <use xlink:href="#mfcf5602460" x="860.507" y="327.484577" style="fill: #21918c; stroke: #21918c"/>
     <use xlink:href="#mfcf5602460" x="867.1735" y="46.856364" style="fill: #21918c; stroke: #21918c"/>
     <use xlink:href="#mfcf5602460" x="873.84" y="410.19605" style="fill: #21918c; stroke: #21918c"/>
    </g>
   </g>
   <g id="patch_9">
    <path d="M 540.515 496.6 
L 540.515 25.44 
" style="fill: none; stroke: #000000; stroke-width: 0.8; stroke-linejoin: miter; stroke-linecap: square"/>
   </g>
   <g id="patch_10">
    <path d="M 873.84 496.6 
L 873.84 25.44 
" style="fill: none; stroke: #000000; stroke-width: 0.8; stroke-linejoin: miter; stroke-linecap: square"/>
   </g>
   <g id="patch_11">
    <path d="M 540.515 496.6 
L 873.84 496.6 
" style="fill: none; stroke: #000000; stroke-width: 0.8; stroke-linejoin: miter; stroke-linecap: square"/>
   </g>
   <g id="patch_12">
    <path d="M 540.515 25.44 
L 873.84 25.44 
" style="fill: none; stroke: #000000; stroke-width: 0.8; stroke-linejoin: miter; stroke-linecap: square"/>
   </g>
   <g id="text_33">
    <!-- Training and Validation Accuracy -->
    <g transform="translate(626.354687 19.44) scale(0.12 -0.12)">
     <use xlink:href="#TimesNewRomanPSMT-54"/>
     <use xlink:href="#TimesNewRomanPSMT-72" x="57.583984"/>
     <use xlink:href="#TimesNewRomanPSMT-61" x="90.884766"/>
     <use xlink:href="#TimesNewRomanPSMT-69" x="135.269531"/>
     <use xlink:href="#TimesNewRomanPSMT-6e" x="163.052734"/>
     <use xlink:href="#TimesNewRomanPSMT-69" x="213.052734"/>
     <use xlink:href="#TimesNewRomanPSMT-6e" x="240.835938"/>
     <use xlink:href="#TimesNewRomanPSMT-67" x="290.835938"/>
     <use xlink:href="#TimesNewRomanPSMT-20" x="340.835938"/>
     <use xlink:href="#TimesNewRomanPSMT-61" x="365.835938"/>
     <use xlink:href="#TimesNewRomanPSMT-6e" x="410.220703"/>
     <use xlink:href="#TimesNewRomanPSMT-64" x="460.220703"/>
     <use xlink:href="#TimesNewRomanPSMT-20" x="510.220703"/>
     <use xlink:href="#TimesNewRomanPSMT-56" x="533.470703"/>
     <use xlink:href="#TimesNewRomanPSMT-61" x="594.5625"/>
     <use xlink:href="#TimesNewRomanPSMT-6c" x="638.947266"/>
     <use xlink:href="#TimesNewRomanPSMT-69" x="666.730469"/>
     <use xlink:href="#TimesNewRomanPSMT-64" x="694.513672"/>
     <use xlink:href="#TimesNewRomanPSMT-61" x="744.513672"/>
     <use xlink:href="#TimesNewRomanPSMT-74" x="788.898438"/>
     <use xlink:href="#TimesNewRomanPSMT-69" x="816.681641"/>
     <use xlink:href="#TimesNewRomanPSMT-6f" x="844.464844"/>
     <use xlink:href="#TimesNewRomanPSMT-6e" x="894.464844"/>
     <use xlink:href="#TimesNewRomanPSMT-20" x="944.464844"/>
     <use xlink:href="#TimesNewRomanPSMT-41" x="963.964844"/>
     <use xlink:href="#TimesNewRomanPSMT-63" x="1036.181641"/>
     <use xlink:href="#TimesNewRomanPSMT-63" x="1080.566406"/>
     <use xlink:href="#TimesNewRomanPSMT-75" x="1124.951172"/>
     <use xlink:href="#TimesNewRomanPSMT-72" x="1174.951172"/>
     <use xlink:href="#TimesNewRomanPSMT-61" x="1208.251953"/>
     <use xlink:href="#TimesNewRomanPSMT-63" x="1252.636719"/>
     <use xlink:href="#TimesNewRomanPSMT-79" x="1297.021484"/>
    </g>
   </g>
   <g id="legend_2">
    <g id="patch_13">
     <path d="M 882.24 69.01875 
L 994.515 69.01875 
Q 996.915 69.01875 996.915 66.61875 
L 996.915 33.84 
Q 996.915 31.44 994.515 31.44 
L 882.24 31.44 
Q 879.84 31.44 879.84 33.84 
L 879.84 66.61875 
Q 879.84 69.01875 882.24 69.01875 
z
" style="fill: #ffffff; opacity: 0.5; stroke: #000000; stroke-linejoin: miter"/>
    </g>
    <g id="line2d_57">
     <path d="M 884.64 40.44 
L 896.64 40.44 
L 908.64 40.44 
" style="fill: none; stroke-dasharray: 7.4,3.2; stroke-dashoffset: 0; stroke: #414487; stroke-width: 2"/>
     <g>
      <use xlink:href="#me6bade3461" x="896.64" y="40.44" style="fill: #414487; stroke: #414487"/>
     </g>
    </g>
    <g id="text_34">
     <!-- Train Accuracy -->
     <g transform="translate(918.24 44.64) scale(0.12 -0.12)">
      <use xlink:href="#TimesNewRomanPSMT-54"/>
      <use xlink:href="#TimesNewRomanPSMT-72" x="57.583984"/>
      <use xlink:href="#TimesNewRomanPSMT-61" x="90.884766"/>
      <use xlink:href="#TimesNewRomanPSMT-69" x="135.269531"/>
      <use xlink:href="#TimesNewRomanPSMT-6e" x="163.052734"/>
      <use xlink:href="#TimesNewRomanPSMT-20" x="213.052734"/>
      <use xlink:href="#TimesNewRomanPSMT-41" x="232.552734"/>
      <use xlink:href="#TimesNewRomanPSMT-63" x="304.769531"/>
      <use xlink:href="#TimesNewRomanPSMT-63" x="349.154297"/>
      <use xlink:href="#TimesNewRomanPSMT-75" x="393.539062"/>
      <use xlink:href="#TimesNewRomanPSMT-72" x="443.539062"/>
      <use xlink:href="#TimesNewRomanPSMT-61" x="476.839844"/>
      <use xlink:href="#TimesNewRomanPSMT-63" x="521.224609"/>
      <use xlink:href="#TimesNewRomanPSMT-79" x="565.609375"/>
     </g>
    </g>
    <g id="line2d_58">
     <path d="M 884.64 57.429375 
L 896.64 57.429375 
L 908.64 57.429375 
" style="fill: none; stroke-dasharray: 7.4,3.2; stroke-dashoffset: 0; stroke: #21918c; stroke-width: 2"/>
     <g>
      <use xlink:href="#mfcf5602460" x="896.64" y="57.429375" style="fill: #21918c; stroke: #21918c"/>
     </g>
    </g>
    <g id="text_35">
     <!-- Val Accuracy -->
     <g transform="translate(918.24 61.629375) scale(0.12 -0.12)">
      <use xlink:href="#TimesNewRomanPSMT-56"/>
      <use xlink:href="#TimesNewRomanPSMT-61" x="61.091797"/>
      <use xlink:href="#TimesNewRomanPSMT-6c" x="105.476562"/>
      <use xlink:href="#TimesNewRomanPSMT-20" x="133.259766"/>
      <use xlink:href="#TimesNewRomanPSMT-41" x="152.759766"/>
      <use xlink:href="#TimesNewRomanPSMT-63" x="224.976562"/>
      <use xlink:href="#TimesNewRomanPSMT-63" x="269.361328"/>
      <use xlink:href="#TimesNewRomanPSMT-75" x="313.746094"/>
      <use xlink:href="#TimesNewRomanPSMT-72" x="363.746094"/>
      <use xlink:href="#TimesNewRomanPSMT-61" x="397.046875"/>
      <use xlink:href="#TimesNewRomanPSMT-63" x="441.431641"/>
      <use xlink:href="#TimesNewRomanPSMT-79" x="485.816406"/>
     </g>
    </g>
   </g>
  </g>
 </g>
 <defs>
  <clipPath id="pa49c647d7a">
   <rect x="50.87" y="25.44" width="333.325" height="471.16"/>
  </clipPath>
  <clipPath id="p0c7a3b04a5">
   <rect x="540.515" y="25.44" width="333.325" height="471.16"/>
  </clipPath>
 </defs>
</svg>
